<svg width="15" height="14" viewBox="0 0 15 14" fill="none" xmlns="http://www.w3.org/2000/svg">
<path d="M7 1C3.688 1 1 3.688 1 7C1 10.312 3.688 13 7 13C10.312 13 13 10.312 13 7C13 3.688 10.312 1 7 1ZM7 3.4C8.158 3.4 9.1 4.342 9.1 5.5C9.1 6.658 8.158 7.6 7 7.6C5.842 7.6 4.9 6.658 4.9 5.5C4.9 4.342 5.842 3.4 7 3.4ZM7 11.8C5.782 11.8 4.342 11.308 3.316 10.072C4.36709 9.24773 5.66425 8.79977 7 8.79977C8.33575 8.79977 9.63291 9.24773 10.684 10.072C9.658 11.308 8.218 11.8 7 11.8Z" fill="currentColor"/>
</svg>
