<svg width="20" height="20" viewBox="0 0 20 20" fill="none" xmlns="http://www.w3.org/2000/svg">
<g id="dengl_guanbi">
<g id="Vector">
<path d="M3.59866 3.59866C3.9522 3.24511 4.52541 3.24511 4.87896 3.59866L16.4017 15.1214C16.7552 15.4749 16.7552 16.0481 16.4017 16.4017C16.0481 16.7552 15.4749 16.7552 15.1214 16.4017L3.59866 4.87896C3.24511 4.52541 3.24511 3.9522 3.59866 3.59866Z" fill="currentColor"/>
<path d="M16.4017 3.59866C16.7552 3.9522 16.7552 4.52541 16.4017 4.87896L4.87896 16.4017C4.52541 16.7552 3.9522 16.7552 3.59866 16.4017C3.24511 16.0481 3.24511 15.4749 3.59866 15.1214L15.1214 3.59866C15.4749 3.24511 16.0481 3.24511 16.4017 3.59866Z" fill="currentColor"/>
</g>
</g>
</svg>
