<svg width="20" height="20" viewBox="0 0 20 20" fill="none" xmlns="http://www.w3.org/2000/svg">
<g id="Frame">
<path id="Vector" d="M18.9676 7.57865C18.6168 7.3327 18.1268 7.41659 17.8789 7.76931L17.2498 8.66731C16.5291 4.87703 13.1964 2 9.2002 2C4.67779 2 1 5.6797 1 10.2002C1 14.7207 4.67779 18.4004 9.2002 18.4004C11.0953 18.4004 12.9447 17.7388 14.4052 16.5358C14.7388 16.2612 14.7865 15.7693 14.5119 15.4357C14.2374 15.102 13.7455 15.0543 13.4118 15.3289C12.2298 16.3012 10.7331 16.837 9.19829 16.837C5.53956 16.8389 2.56149 13.8608 2.56149 10.2002C2.56149 6.53956 5.53956 3.56149 9.2002 3.56149C12.4967 3.56149 15.2307 5.97712 15.7436 9.1306L14.6168 8.33937C14.266 8.09343 13.776 8.17732 13.5281 8.53003C13.2822 8.88084 13.3661 9.37083 13.7188 9.61869L16.2755 11.4147C16.6263 11.6606 17.1163 11.5767 17.3642 11.224L19.1602 8.66731C19.4061 8.31459 19.3203 7.8265 18.9676 7.57865Z" fill="white"/>
</g>
</svg>
