<svg width="16" height="16" viewBox="0 0 16 16" fill="none" xmlns="http://www.w3.org/2000/svg">
<g id="Frame" clip-path="url(#clip0_12157_92208)">
<path id="Vector" opacity="0.01" d="M0 0H16V16H0V0Z" fill="#202425"/>
<path id="Vector_2" d="M14.0876 7.24576C14.2875 7.44579 14.3999 7.71705 14.3999 7.99989C14.3999 8.28273 14.2875 8.554 14.0876 8.75402L9.28756 13.554C9.18917 13.6559 9.07147 13.7372 8.94133 13.7931C8.81119 13.849 8.67122 13.8784 8.52959 13.8796C8.38796 13.8809 8.2475 13.8539 8.11641 13.8002C7.98532 13.7466 7.86623 13.6674 7.76608 13.5672C7.66592 13.4671 7.58672 13.348 7.53309 13.2169C7.47945 13.0858 7.45247 12.9454 7.4537 12.8037C7.45493 12.6621 7.48435 12.5221 7.54026 12.392C7.59616 12.2619 7.67742 12.1442 7.7793 12.0458L10.7585 9.06656H2.66676C2.38387 9.06656 2.11256 8.95418 1.91252 8.75414C1.71248 8.5541 1.6001 8.28279 1.6001 7.99989C1.6001 7.71699 1.71248 7.44568 1.91252 7.24564C2.11256 7.04561 2.38387 6.93322 2.66676 6.93322H10.7585L7.7793 3.95402C7.67742 3.85563 7.59616 3.73793 7.54026 3.60779C7.48435 3.47765 7.45493 3.33768 7.4537 3.19605C7.45247 3.05442 7.47945 2.91396 7.53309 2.78287C7.58672 2.65178 7.66592 2.53269 7.76608 2.43254C7.86623 2.33238 7.98532 2.25318 8.11641 2.19955C8.2475 2.14592 8.38796 2.11893 8.52959 2.12016C8.67122 2.12139 8.81119 2.15081 8.94133 2.20672C9.07147 2.26262 9.18917 2.34388 9.28756 2.44576L14.0876 7.24576Z" fill="#C6C4F5"/>
</g>
<defs>
<clipPath id="clip0_12157_92208">
<rect width="16" height="16" fill="white"/>
</clipPath>
</defs>
</svg>
