<svg width="8" height="7" viewBox="0 0 8 7" fill="none" xmlns="http://www.w3.org/2000/svg">
<path d="M3.51753 2.77864V1.33656H1.55908V0.0725098H7.03176V1.35436H5.07331V2.77864H3.51753Z" fill="currentColor"/>
<path d="M4.24951 2.06598C6.20764 2.06598 7.78219 2.45747 7.78271 2.93805C7.78271 3.41874 6.20796 3.8111 4.24951 3.8111C2.29122 3.81105 0.717285 3.41871 0.717285 2.93805C0.717811 2.45749 2.29155 2.06603 4.24951 2.06598ZM4.24951 2.20953C2.19986 2.20961 1.1384 2.74319 1.01025 2.93903C1.13837 3.11705 2.19982 3.3843 4.24951 3.38434C6.31778 3.38434 7.36162 3.11706 7.48975 2.93903C7.36162 2.76099 6.29948 2.20953 4.24951 2.20953Z" fill="currentColor"/>
<path d="M5.07312 3.22291V2.22591C4.81687 2.20811 4.54233 2.19031 4.26778 2.19031C4.01153 2.19031 3.77359 2.19031 3.53564 2.20811V3.20511C3.75528 3.20511 4.01153 3.22291 4.26778 3.22291C4.54233 3.24071 4.81687 3.24071 5.07312 3.22291Z" fill="currentColor"/>
<path d="M4.24971 3.81057C3.99346 3.81057 3.75552 3.81057 3.51758 3.79277V6.44548H5.05505V3.77496C4.79881 3.79277 4.52426 3.81057 4.24971 3.81057Z" fill="currentColor"/>
</svg>
