<svg xmlns="http://www.w3.org/2000/svg" width="30" height="30" viewBox="0 0 30 30" fill="none">
  <path d="M22.8281 20.8125L27.7031 25.6875C28.2656 26.25 28.2656 27.1406 27.7031 27.6562C27.1406 28.2188 26.25 28.2188 25.7344 27.6562L20.8125 22.8281C18.8438 24.375 16.3125 25.3125 13.5938 25.3125C7.125 25.3125 1.875 20.0625 1.875 13.5938C1.875 7.125 7.125 1.875 13.5938 1.875C20.0625 1.875 25.3125 7.125 25.3125 13.5938C25.3125 16.3125 24.375 18.8438 22.8281 20.8125ZM13.5938 22.5C18.5156 22.5 22.5 18.5156 22.5 13.5938C22.5 8.67188 18.5156 4.6875 13.5938 4.6875C8.67188 4.6875 4.6875 8.67188 4.6875 13.5938C4.6875 18.5156 8.67188 22.5 13.5938 22.5Z" fill="white"/>
</svg>