<svg width="28" height="28" viewBox="0 0 28 28" fill="none" xmlns="http://www.w3.org/2000/svg">
<path d="M15.3346 6.30466C16.0026 6.033 16.728 5.94056 17.441 6.03708L21.1373 6.53806C21.8961 6.64019 22.6127 6.95448 23.2076 7.44528C23.8025 7.93618 24.2534 8.58509 24.5094 9.32028L25.7584 12.9013C25.9985 13.5923 26.061 14.3351 25.9391 15.0576C25.8171 15.7798 25.5149 16.458 25.0621 17.0273L22.3736 20.4111C21.9218 20.9814 21.3336 21.4235 20.6656 21.6953C19.9974 21.9671 19.2713 22.0594 18.5582 21.9629L14.8619 21.4619C14.103 21.3597 13.3865 21.0456 12.7916 20.5547C12.1967 20.0637 11.7457 19.4149 11.4898 18.6797L10.2408 15.0986C10.0008 14.4077 9.93826 13.6656 10.0601 12.9433C10.1821 12.2209 10.4842 11.5421 10.9371 10.9726L13.6256 7.58981C14.0775 7.01934 14.6664 6.57645 15.3346 6.30466ZM15.7652 19.2675C15.206 19.3436 14.7748 19.6959 14.8023 20.0537C14.8302 20.4112 15.304 20.6394 15.8629 20.5634C16.4219 20.4874 16.8529 20.1359 16.8258 19.7783C16.7991 19.4206 16.3243 19.1916 15.7652 19.2675ZM19.3873 17.875C18.8282 17.951 18.3971 18.3034 18.4244 18.6611C18.4519 19.0188 18.9259 19.2478 19.4849 19.1718C20.0441 19.0958 20.4753 18.7435 20.4478 18.3857C20.4209 18.0282 19.9462 17.7991 19.3873 17.875ZM6.30526 6.28415C6.94274 6.03265 7.64153 5.94617 8.32772 6.03317L11.6598 6.46091C11.7751 6.47569 11.8884 6.49544 11.9996 6.5195L8.90292 10.0732C8.24104 10.8343 7.80279 11.7418 7.62948 12.707C7.45619 13.6722 7.55451 14.6625 7.91464 15.582L9.24471 19L6.68905 18.6728C6.05258 18.5933 5.44939 18.361 4.93807 18C4.42665 17.6387 4.02399 17.16 3.77108 16.6113L2.28964 13.3691C2.0406 12.8189 1.95029 12.2177 2.02596 11.625C2.10173 11.0321 2.34139 10.4671 2.72225 9.9863L4.70565 7.46188C5.11488 6.94263 5.66774 6.53569 6.30526 6.28415ZM22.692 16.6377C22.1329 16.7137 21.7017 17.0661 21.7291 17.4238C21.7566 17.7815 22.2306 18.0104 22.7896 17.9345C23.3488 17.8585 23.78 17.5062 23.7525 17.1484C23.7257 16.7908 23.251 16.5617 22.692 16.6377ZM13.7955 11.3691C13.1319 11.4588 12.652 12.3502 12.7242 13.3603C12.7965 14.3702 13.3938 15.1156 14.0572 15.0263C14.7208 14.9367 15.2008 14.0443 15.1285 13.0342C15.0561 12.0243 14.459 11.2796 13.7955 11.3691ZM23.7125 11.5019C23.1354 11.025 22.4127 10.9583 22.0992 11.3525C21.7859 11.747 21.9997 12.4534 22.5767 12.9297C23.154 13.4067 23.8767 13.4727 24.19 13.0781C24.5031 12.6836 24.2894 11.9781 23.7125 11.5019ZM19.2594 7.82614C18.6821 7.3491 17.9594 7.28311 17.6461 7.67771C17.3328 8.07232 17.5474 8.77767 18.1246 9.25388C18.7017 9.73074 19.4234 9.79752 19.7369 9.40329C20.0502 9.00872 19.8365 8.30238 19.2594 7.82614Z" fill="currentColor"/>
</svg>
