<svg width="28" height="28" viewBox="0 0 28 28" fill="none" xmlns="http://www.w3.org/2000/svg">
<path d="M6.90723 8.60468V17.2267C6.90723 18.3905 7.30127 19.3873 8.08887 20.216C8.87633 21.0445 9.82299 21.459 10.9287 21.4592H20.2803L20.2373 21.6154C20.1273 21.9729 19.9405 22.2867 19.6768 22.5568C19.3751 22.8657 19.006 23.0466 18.5703 23.0988L7.61133 24.5002C7.19649 24.5663 6.81235 24.5062 6.45899 24.3195C6.34133 24.2573 6.22706 24.1812 6.11622 24.091C5.78345 23.8202 5.55587 23.4873 5.43458 23.092C5.39417 22.9603 5.36557 22.8215 5.34864 22.676L4.01661 11.1174C3.98312 10.8265 4.0004 10.5512 4.06739 10.2912C4.10091 10.1611 4.1464 10.0347 4.20508 9.91229C4.23443 9.85108 4.2671 9.79091 4.30274 9.73163L4.41895 9.55682C4.75405 9.09851 5.19813 8.83442 5.75098 8.76385L6.90723 8.60468ZM21.9893 3.47382C22.5422 3.47385 23.0161 3.68121 23.4102 4.09589C23.8042 4.51057 24.0007 5.00895 24 5.59003V17.2267C24 17.8085 23.8035 18.3072 23.4102 18.7219C23.0167 19.1365 22.5429 19.3436 21.9893 19.343H10.9287C10.376 19.3428 9.90311 19.1357 9.50977 18.7219C9.11631 18.3079 8.91864 17.8093 8.91797 17.2267V5.59003C8.91797 5.00816 9.11564 4.5099 9.50977 4.09589C9.90376 3.68208 10.3767 3.47464 10.9287 3.47382H21.9893ZM15.4033 9.76874L12.7637 10.007L14.7754 11.8312L14.1719 14.5822L16.459 13.1271L18.7461 14.5822L18.1436 11.8312L20.1543 10.007L17.5147 9.76874L16.459 7.17694L15.4033 9.76874Z" fill="currentColor"/>
</svg>
