<svg width="28" height="28" viewBox="0 0 28 28" fill="none" xmlns="http://www.w3.org/2000/svg">
<path d="M21.1272 11.3284L21.362 10.7893C21.7748 9.83578 22.5309 9.07124 23.481 8.64657L24.2055 8.32372C24.2934 8.28339 24.3679 8.21875 24.4201 8.13747C24.4723 8.0562 24.5 7.9617 24.5 7.86517C24.5 7.76864 24.4723 7.67414 24.4201 7.59287C24.3679 7.51159 24.2934 7.44695 24.2055 7.40662L23.5211 7.10282C22.5471 6.66605 21.7781 5.87323 21.3725 4.88766L21.131 4.30578C21.0955 4.21564 21.0336 4.13826 20.9535 4.08372C20.8733 4.02917 20.7785 4 20.6814 4C20.5843 4 20.4895 4.02917 20.4093 4.08372C20.3292 4.13826 20.2673 4.21564 20.2318 4.30578L19.9903 4.88671C19.5851 5.87246 18.8165 6.66563 17.8426 7.10282L17.1573 7.40757C17.0697 7.44802 16.9955 7.51265 16.9435 7.59382C16.8915 7.67499 16.8638 7.76931 16.8638 7.86565C16.8638 7.96198 16.8915 8.0563 16.9435 8.13747C16.9955 8.21864 17.0697 8.28327 17.1573 8.32372L17.8827 8.64562C18.8327 9.07071 19.5884 9.8356 20.0008 10.7893L20.2356 11.3284C20.4075 11.7226 20.9544 11.7226 21.1272 11.3284ZM15.3236 9.0856C15.5852 9.49828 15.9428 9.80335 16.3965 10.0008L16.9358 10.236C17.4799 10.4728 17.869 10.8532 18.1032 11.3769L18.4258 12.1007C19.1198 13.6597 21.1854 13.9045 22.3127 12.8378L22.3996 12.9531C22.5322 13.1296 22.5993 13.3466 22.5894 13.5671C22.5795 13.7875 22.4931 13.9976 22.3451 14.1616L13.7544 23.6851C13.6649 23.7842 13.5555 23.8635 13.4333 23.9177C13.3111 23.972 13.1789 24 13.0452 24C12.9114 24 12.7792 23.972 12.657 23.9177C12.5348 23.8635 12.4255 23.7842 12.336 23.6851L3.7452 14.1616C3.59721 13.9976 3.51089 13.7875 3.50096 13.5671C3.49104 13.3466 3.55814 13.1296 3.69079 12.9531L6.55438 9.14369C6.64329 9.02542 6.75858 8.92942 6.89112 8.8633C7.02366 8.79718 7.16981 8.76275 7.318 8.76275H15.1509C15.1999 8.87323 15.2571 8.98084 15.3227 9.0856" fill="currentColor"/>
</svg>
