<svg xmlns="http://www.w3.org/2000/svg" width="24" height="24" viewBox="0 0 24 24" fill="none">
  <path d="M12.0292 17.3367C14.9102 17.3367 17.2992 14.9477 17.2992 12.0585C17.2992 9.16104 14.9102 6.77203 12.0292 6.77203C9.13998 6.77203 6.75097 9.16104 6.75097 12.0585C6.75097 14.9477 9.13998 17.3367 12.0292 17.3367ZM12.0292 15.4709C10.1581 15.4709 8.60861 13.9214 8.60861 12.0585C8.60861 10.1874 10.1581 8.6361 12.0292 8.6361C13.8921 8.6361 15.4434 10.1874 15.4434 12.0585C15.4434 13.9214 13.8921 15.4709 12.0292 15.4709ZM13.0433 1.87125C13.0433 1.3204 12.5819 0.857147 12.0292 0.857147C11.4866 0.857147 11.0251 1.3204 11.0251 1.87125V3.91734C11.0251 4.46176 11.4866 4.92321 12.0292 4.92321C12.5819 4.92321 13.0433 4.46176 13.0433 3.91734V1.87125ZM17.06 5.6151C16.6797 6.0018 16.6815 6.64466 17.0654 7.0368C17.4521 7.41709 18.1032 7.42171 18.4936 7.03138L19.9432 5.57812C20.3317 5.1914 20.3299 4.53208 19.9378 4.14817C19.5575 3.76146 18.9064 3.76507 18.5261 4.15359L17.06 5.6151ZM22.1972 13.0626C22.748 13.0626 23.2113 12.6011 23.2113 12.0585C23.2113 11.5141 22.748 11.0527 22.1972 11.0527H20.1593C19.6149 11.0527 19.1535 11.5141 19.1535 12.0585C19.1535 12.6011 19.6149 13.0626 20.1593 13.0626H22.1972ZM18.4817 17.0903C18.1014 16.7018 17.4503 16.7054 17.06 17.0957C16.6797 17.476 16.6815 18.1252 17.0654 18.5156L18.5333 19.9753C18.9136 20.3538 19.5647 20.3437 19.9486 19.9599C20.3353 19.5731 20.3335 18.922 19.9414 18.5399L18.4817 17.0903ZM13.0433 20.1979C13.0433 19.647 12.5819 19.1856 12.0292 19.1856C11.4866 19.1856 11.0251 19.647 11.0251 20.1979V22.244C11.0251 22.7884 11.4866 23.2516 12.0292 23.2516C12.5819 23.2516 13.0433 22.7884 13.0433 22.244V20.1979ZM4.11706 18.5317C3.73316 18.9138 3.73135 19.5649 4.10159 19.9516C4.4855 20.3355 5.14482 20.3456 5.53335 19.9671L6.98481 18.5156C7.37694 18.1335 7.37875 17.4843 7.00027 17.0957C6.61636 16.7136 5.95704 16.71 5.56852 17.0903L4.11706 18.5317ZM1.86123 11.0527C1.31863 11.0527 0.857178 11.5141 0.857178 12.0585C0.857178 12.6011 1.31863 13.0626 1.86123 13.0626H3.89909C4.45175 13.0626 4.915 12.6011 4.915 12.0585C4.915 11.5141 4.45175 11.0527 3.89909 11.0527H1.86123ZM5.5649 7.03138C5.95523 7.41348 6.60632 7.41709 6.98481 7.0368C7.37694 6.66114 7.37875 5.99358 7.00027 5.6151L5.54882 4.15359C5.17677 3.77331 4.51744 3.76146 4.12892 4.14817C3.74682 4.53208 3.7432 5.1914 4.11525 5.56988L5.5649 7.03138Z" fill="currentColor"/>
</svg>