<svg xmlns="http://www.w3.org/2000/svg" width="24" height="24" viewBox="0 0 24 24" fill="none">
  <path d="M17 18H7V6H17V7H19V3C19 1.9 18.1 1 17 1H7C5.9 1 5 1.9 5 3V21C5 22.1 5.9 23 7 23H17C18.1 23 19 22.1 19 21V17H17V18ZM20.38 9.62L20.78 10.49C20.87 10.69 21.15 10.69 21.24 10.49L21.64 9.62L22.51 9.22C22.71 9.13 22.71 8.85 22.51 8.76L21.64 8.36L21.24 7.49C21.15 7.29 20.87 7.29 20.78 7.49L20.38 8.36L19.51 8.76C19.31 8.85 19.31 9.13 19.51 9.22L20.38 9.62Z" fill="white"/>
  <path d="M15.54 9L14.75 10.75L13 11.54C12.9127 11.5798 12.8387 11.6438 12.7868 11.7245C12.7349 11.8052 12.7073 11.8991 12.7073 11.995C12.7073 12.0909 12.7349 12.1848 12.7868 12.2655C12.8387 12.3462 12.9127 12.4102 13 12.45L14.75 13.24L15.54 15C15.5798 15.0873 15.6438 15.1613 15.7245 15.2132C15.8052 15.2651 15.8991 15.2927 15.995 15.2927C16.0909 15.2927 16.1848 15.2651 16.2655 15.2132C16.3462 15.1613 16.4102 15.0873 16.45 15L17.24 13.25L19 12.46C19.0873 12.4202 19.1613 12.3562 19.2132 12.2755C19.2651 12.1948 19.2927 12.1009 19.2927 12.005C19.2927 11.9091 19.2651 11.8152 19.2132 11.7345C19.1613 11.6538 19.0873 11.5898 19 11.55L17.25 10.76L16.46 9C16.419 8.91258 16.354 8.83865 16.2725 8.78686C16.1911 8.73506 16.0965 8.70755 16 8.70755C15.9035 8.70755 15.8089 8.73506 15.7275 8.78686C15.646 8.83865 15.581 8.91258 15.54 9ZM20.77 13.5L20.37 14.37L19.5 14.77C19.3 14.86 19.3 15.14 19.5 15.23L20.37 15.63L20.77 16.5C20.86 16.7 21.14 16.7 21.23 16.5L21.63 15.63L22.5 15.23C22.7 15.14 22.7 14.86 22.5 14.77L21.63 14.37L21.23 13.5C21.2087 13.4572 21.1759 13.4213 21.1352 13.3961C21.0946 13.371 21.0478 13.3577 21 13.3577C20.9522 13.3577 20.9054 13.371 20.8648 13.3961C20.8241 13.4213 20.7913 13.4572 20.77 13.5Z" fill="white"/>
</svg>