<svg width="28" height="28" viewBox="0 0 28 28" fill="none" xmlns="http://www.w3.org/2000/svg">
<path d="M23 9.99927C23.5304 9.99927 24.0391 10.21 24.4142 10.5851C24.7893 10.9602 25 11.4689 25 11.9994V15.9996C25 16.53 24.7893 17.0387 24.4142 17.4138C24.0391 17.7889 23.5304 17.9997 23 17.9997H21.938C21.6944 19.9331 20.7535 21.7112 19.292 23.0001C17.8304 24.2891 15.9487 25.0002 14 25V22.9999C15.5913 22.9999 17.1174 22.3677 18.2426 21.2425C19.3679 20.1172 20 18.591 20 16.9996V10.9993C20 9.40794 19.3679 7.88174 18.2426 6.75647C17.1174 5.63119 15.5913 4.99902 14 4.99902C12.4087 4.99902 10.8826 5.63119 9.75736 6.75647C8.63214 7.88174 8 9.40794 8 10.9993V17.9997H5C4.46957 17.9997 3.96086 17.7889 3.58579 17.4138C3.21071 17.0387 3 16.53 3 15.9996V11.9994C3 11.4689 3.21071 10.9602 3.58579 10.5851C3.96086 10.21 4.46957 9.99927 5 9.99927H6.062C6.30603 8.06607 7.24708 6.28836 8.70857 4.9997C10.1701 3.71104 12.0516 3 14 3C15.9484 3 17.8299 3.71104 19.2914 4.9997C20.7529 6.28836 21.694 8.06607 21.938 9.99927H23ZM9.76 17.7846L10.82 16.0886C11.773 16.6857 12.8754 17.0015 14 16.9996C15.1246 17.0015 16.227 16.6857 17.18 16.0886L18.24 17.7846C16.9693 18.581 15.4996 19.0022 14 18.9997C12.5004 19.0022 11.0307 18.581 9.76 17.7846Z" fill="currentColor"/>
<path d="M9.75977 17.7847L10.8198 16.0886C11.7728 16.6858 12.8751 17.0016 13.9998 16.9996C15.1244 17.0016 16.2267 16.6858 17.1798 16.0886L18.2398 17.7847C16.9691 18.581 15.4993 19.0022 13.9998 18.9997C12.5002 19.0022 11.0304 18.581 9.75977 17.7847Z" fill="currentColor"/>
</svg>
