<svg xmlns="http://www.w3.org/2000/svg" width="21" height="20" viewBox="0 0 21 20" fill="none">
  <path d="M2.63932 2.13929L1.00636 2.73309C0.331216 2.97859 0.331214 3.9334 1.00635 4.17891L2.63932 4.7727L3.23312 6.40565C3.47863 7.08078 4.43345 7.08078 4.67896 6.40565L5.27277 4.7727L6.90573 4.17891C7.58087 3.9334 7.58087 2.97859 6.90573 2.73309L5.27277 2.13929L4.67896 0.506349C4.43345 -0.168782 3.47863 -0.168783 3.23312 0.506347L2.63932 2.13929Z" fill="white"/>
  <path d="M8.95272 7.48674L12.4709 6.20743L13.7503 2.68927C13.9958 2.01413 14.9506 2.01415 15.1962 2.68927L16.4754 6.20743L19.9936 7.48674C20.6688 7.73225 20.6688 8.68707 19.9936 8.93258L16.4754 10.2119L15.1962 13.73C14.9506 14.4052 13.9958 14.4052 13.7503 13.73L12.4709 10.2119L8.95272 8.93258C8.27758 8.68707 8.27758 7.73225 8.95272 7.48674Z" fill="white"/>
  <path d="M1.00637 14.5023L3.60648 13.5568L4.55198 10.9567C4.79749 10.2816 5.75231 10.2816 5.99782 10.9567L6.94331 13.5568L9.54342 14.5023C10.2186 14.7477 10.2186 15.7026 9.54342 15.948L6.94331 16.8936L5.99782 19.4937C5.75231 20.1688 4.79749 20.1688 4.55198 19.4937L3.60648 16.8936L1.00637 15.948C0.331229 15.7026 0.331228 14.7477 1.00637 14.5023Z" fill="white"/>
  <path d="M2.63932 2.13929L1.00636 2.73309C0.331216 2.97859 0.331214 3.9334 1.00635 4.17891L2.63932 4.77271L3.23312 6.40565C3.47863 7.08078 4.43345 7.08078 4.67896 6.40565L5.27277 4.77271L6.90573 4.17891C7.58087 3.9334 7.58087 2.97859 6.90573 2.73309L5.27277 2.13929L4.67896 0.506349C4.43345 -0.168782 3.47863 -0.168783 3.23312 0.506347L2.63932 2.13929Z" fill="white"/>
</svg>