<svg width="28" height="28" viewBox="0 0 28 28" fill="none" xmlns="http://www.w3.org/2000/svg">
<path d="M14.1078 8.89643C15.0884 7.13727 15.5787 6.25769 16.3118 6.25769C17.0449 6.25769 17.5351 7.13727 18.5157 8.89643L18.7695 9.35155C19.0481 9.85145 19.1874 10.1014 19.4047 10.2663C19.622 10.4312 19.8925 10.4925 20.4337 10.6149L20.9263 10.7264C22.8306 11.1572 23.7828 11.3726 24.0092 12.1011C24.2358 12.8295 23.5867 13.5886 22.2885 15.1066L21.9526 15.4994C21.5837 15.9308 21.3992 16.1465 21.3163 16.4134C21.2332 16.6802 21.2611 16.968 21.317 17.5435L21.3677 18.0675C21.564 20.093 21.6621 21.1058 21.069 21.5559C20.476 22.0061 19.5845 21.5956 17.8015 20.7747L17.3403 20.5624C16.8336 20.329 16.5803 20.2124 16.3118 20.2124C16.0432 20.2124 15.7899 20.329 15.2833 20.5624L14.822 20.7747C13.039 21.5956 12.1475 22.0061 11.5545 21.5559C10.9614 21.1058 11.0595 20.093 11.2558 18.0675L11.3066 17.5435C11.3624 16.968 11.3902 16.6802 11.3073 16.4134C11.2243 16.1465 11.0398 15.9308 10.6709 15.4994L10.3351 15.1066C9.03686 13.5886 8.38776 12.8295 8.61428 12.1011C8.84081 11.3726 9.79294 11.1572 11.6972 10.7264L12.1899 10.6149C12.731 10.4925 13.0015 10.4312 13.2188 10.2663C13.4361 10.1014 13.5754 9.85145 13.854 9.35155L14.1078 8.89643Z" fill="currentColor"/>
<path fill-rule="evenodd" clip-rule="evenodd" d="M11.1404 7.42137C9.22272 6.86876 7.16563 7.16065 5.18087 8.32298L4.97943 8.44096C4.63353 8.64352 4.18891 8.52733 3.98633 8.18143C3.78376 7.83553 3.89996 7.3909 4.24586 7.18833L4.4473 7.07036C6.73158 5.73262 9.19674 5.35059 11.5424 6.02652L11.7435 6.08449C12.1287 6.19549 12.351 6.59771 12.24 6.98289C12.129 7.36807 11.7268 7.59034 11.3416 7.47934L11.1404 7.42137ZM7.35731 12.0027C7.39134 12.4021 7.09514 12.7535 6.69574 12.7875C6.54752 12.8002 6.43388 12.8073 6.33864 12.8134C6.16698 12.8243 6.05513 12.8314 5.90835 12.8596C5.7182 12.8961 5.4713 12.9733 5.02324 13.1973C4.6647 13.3767 4.22873 13.2313 4.04947 12.8728C3.8702 12.5142 4.01552 12.0782 4.37406 11.899C4.89372 11.6392 5.2709 11.5038 5.63472 11.434C5.87366 11.3881 6.12031 11.372 6.34211 11.3576C6.42272 11.3523 6.50004 11.3473 6.57252 11.3411C6.97192 11.3071 7.32329 11.6033 7.35731 12.0027ZM8.40402 17.7314C7.25826 17.4628 6.0511 17.7292 5.14784 18.4408C4.83299 18.689 4.37663 18.6348 4.12854 18.32C3.88046 18.0051 3.93459 17.5488 4.24945 17.3007C5.50538 16.311 7.1665 15.9505 8.7352 16.318C9.12548 16.4095 9.36773 16.8 9.27628 17.1903C9.18483 17.5806 8.7943 17.8228 8.40402 17.7314Z" fill="currentColor"/>
</svg>
