<svg width="28" height="28" viewBox="0 0 28 28" fill="none" xmlns="http://www.w3.org/2000/svg">
<mask id="mask0_98_5645" style="mask-type:alpha" maskUnits="userSpaceOnUse" x="6" y="1" width="16" height="26">
<path d="M20.6693 10.3443C20.1057 10.3443 19.5421 10.2817 18.9785 10.1721L9.63209 22.086C9.97652 22.4931 10.3366 22.8688 10.7436 23.2289L20.6693 10.5792V10.3443ZM15.9256 9.17016L7.9726 19.315C8.19178 19.8473 8.45793 20.3639 8.75538 20.8492L17.4442 9.76507C16.9276 9.60852 16.4266 9.405 15.9256 9.17016ZM22 12.3639V17.3737C22 21.0997 17.1155 26.3287 14 26.3287C10.8845 26.3287 6 21.131 6 17.3737V9.01361C8.88063 9.01361 11.683 8.08993 14 6.35216C16.3014 8.08993 19.1037 9.01361 22 9.01361V12.3639ZM19.2759 2.84531L19.7613 4.30128H21.3112V4.31693L20.4031 4.97447C20.2779 5.03709 20.1683 5.13103 20.0587 5.22496L20.5284 6.68093L19.5577 5.99208C19.4638 5.9138 19.3542 5.83553 19.2446 5.78856L18.0078 6.66527L18.4775 5.2093L17.225 4.30128H18.775L19.2759 2.84531ZM8.70841 2.84531L9.19374 4.30128H10.7593V4.31693L9.50685 5.2093L9.97652 6.66527L9.96086 6.64962L8.73973 5.7729C8.59883 5.85118 8.45793 5.92946 8.34834 6.03905L7.47162 6.66527L7.94129 5.19365L6.68885 4.30128H8.2544L8.70841 2.84531ZM14 1.67114C14.1566 2.15647 14.3131 2.64179 14.4853 3.12711H16.0352L14.7828 4.03513L15.2681 5.50676L14.0157 4.59874L14 4.61439L12.7476 5.50676L13.092 4.42652C13.1546 4.30128 13.1859 4.16038 13.2172 4.03513L11.9648 3.14277H13.5303L14 1.67114Z" fill="currentColor"/>
</mask>
<g mask="url(#mask0_98_5645)">
<path d="M20.6693 10.3443C20.1057 10.3443 19.5421 10.2817 18.9785 10.1721L9.63209 22.086C9.97652 22.4931 10.3366 22.8688 10.7436 23.2289L20.6693 10.5792V10.3443ZM15.9256 9.17016L7.9726 19.315C8.19178 19.8473 8.45793 20.3639 8.75538 20.8492L17.4442 9.76507C16.9276 9.60852 16.4266 9.405 15.9256 9.17016ZM22 12.3639V17.3737C22 21.0997 17.1155 26.3287 14 26.3287C10.8845 26.3287 6 21.131 6 17.3737V9.01361C8.88063 9.01361 11.683 8.08993 14 6.35216C16.3014 8.08993 19.1037 9.01361 22 9.01361V12.3639ZM19.2759 2.84531L19.7613 4.30128H21.3112V4.31693L20.4031 4.97447C20.2779 5.03709 20.1683 5.13103 20.0587 5.22496L20.5284 6.68093L19.5577 5.99208C19.4638 5.9138 19.3542 5.83553 19.2446 5.78856L18.0078 6.66527L18.4775 5.2093L17.225 4.30128H18.775L19.2759 2.84531ZM8.70841 2.84531L9.19374 4.30128H10.7593V4.31693L9.50685 5.2093L9.97652 6.66527L9.96086 6.64962L8.73973 5.7729C8.59883 5.85118 8.45793 5.92946 8.34834 6.03905L7.47162 6.66527L7.94129 5.19365L6.68885 4.30128H8.2544L8.70841 2.84531ZM14 1.67114C14.1566 2.15647 14.3131 2.64179 14.4853 3.12711H16.0352L14.7828 4.03513L15.2681 5.50676L14.0157 4.59874L14 4.61439L12.7476 5.50676L13.092 4.42652C13.1546 4.30128 13.1859 4.16038 13.2172 4.03513L11.9648 3.14277H13.5303L14 1.67114Z" fill="currentColor"/>
</g>
<path d="M19.276 2.86162L19.7614 4.33781H21.3113V4.35368L20.4032 5.02035C20.278 5.08384 20.1684 5.17908 20.0588 5.27432L20.5285 6.75051L19.5578 6.0521C19.4639 5.97273 19.3543 5.89336 19.2447 5.84575L18.0079 6.73463L18.4776 5.25844L17.2252 4.33781H18.7751L19.276 2.86162ZM8.70853 2.86162L9.19386 4.33781H10.7594V4.35368L9.50697 5.25844L9.97664 6.73463L9.96098 6.71876L8.73985 5.82987C8.59894 5.90924 8.45804 5.9886 8.34846 6.09971L7.47174 6.73463L7.94141 5.24257L6.68896 4.33781H8.25452L8.70853 2.86162ZM14.0001 1.67114C14.1567 2.16321 14.3132 2.65527 14.4854 3.14733H16.0353L14.7829 4.06797L15.2682 5.56003L14.0158 4.6394L14.0001 4.65527L12.7477 5.56003L13.0921 4.46479C13.1547 4.33781 13.186 4.19495 13.2173 4.06797L11.9649 3.16321H13.5305L14.0001 1.67114Z" fill="currentColor"/>
</svg>
