<svg xmlns="http://www.w3.org/2000/svg" width="21" height="20" viewBox="0 0 21 20" fill="none">
  <path d="M18.6818 6.36297C19.164 6.36297 19.6265 6.55454 19.9675 6.89553C20.3084 7.23652 20.5 7.699 20.5 8.18124V11.8178C20.5 12.3 20.3084 12.7625 19.9675 13.1035C19.6265 13.4445 19.164 13.6361 18.6818 13.6361H17.7164C17.4949 15.3938 16.6396 17.0102 15.3109 18.182C13.9822 19.3537 12.2715 20.0002 10.5 20V18.1817C11.9466 18.1817 13.334 17.607 14.3569 16.5841C15.3799 15.5611 15.9545 14.1736 15.9545 12.7269V7.2721C15.9545 5.8254 15.3799 4.43795 14.3569 3.41497C13.334 2.39199 11.9466 1.81729 10.5 1.81729C9.05336 1.81729 7.66598 2.39199 6.64305 3.41497C5.62013 4.43795 5.04545 5.8254 5.04545 7.2721V13.6361H2.31818C1.83597 13.6361 1.37351 13.4445 1.03253 13.1035C0.691558 12.7625 0.5 12.3 0.5 11.8178V8.18124C0.5 7.699 0.691558 7.23652 1.03253 6.89553C1.37351 6.55454 1.83597 6.36297 2.31818 6.36297H3.28364C3.50548 4.60552 4.36098 2.98942 5.68961 1.81791C7.01824 0.646398 8.72869 0 10.5 0C12.2713 0 13.9818 0.646398 15.3104 1.81791C16.639 2.98942 17.4945 4.60552 17.7164 6.36297H18.6818ZM6.64545 13.4406L7.60909 11.8987C8.47548 12.4416 9.47759 12.7287 10.5 12.7269C11.5224 12.7287 12.5245 12.4416 13.3909 11.8987L14.3545 13.4406C13.1994 14.1645 11.8632 14.5474 10.5 14.5452C9.13676 14.5474 7.80061 14.1645 6.64545 13.4406Z" fill="white"/>
  <path d="M6.64551 13.4406L7.60914 11.8987C8.47554 12.4416 9.47764 12.7287 10.5001 12.7269C11.5225 12.7287 12.5246 12.4416 13.391 11.8987L14.3546 13.4406C13.1994 14.1645 11.8633 14.5474 10.5001 14.5452C9.13681 14.5474 7.80067 14.1645 6.64551 13.4406Z" fill="white"/>
</svg>