<svg width="28" height="28" viewBox="0 0 28 28" fill="none" xmlns="http://www.w3.org/2000/svg">
<path d="M23.0489 13.4481L20.4392 11.9339C22.9537 9.79117 20.4297 5.79136 17.4105 7.1532L16.5818 7.50557L16.4771 6.59133C16.3818 5.5628 15.8484 4.82951 15.1436 4.40096C13.5816 3.49338 11.2005 4.11526 10.8195 6.38181L8.20029 4.87712C7.28594 4.34382 6.12396 4.65809 5.60011 5.57233L4.64766 7.21987C4.38098 7.67699 4.54289 8.25791 5.00007 8.52456L12.4196 12.8101L13.8483 10.334L15.496 11.2863L14.0674 13.7624L21.4869 18.0479C21.9441 18.286 22.5346 18.1527 22.7918 17.6955L23.7442 16.048C24.2681 15.1338 23.9633 13.9719 23.0489 13.4481ZM13.8769 7.81031C13.0482 8.0484 12.3815 7.16273 12.8006 6.42943C13.0482 5.97231 13.6483 5.81993 14.1055 6.07706C14.8389 6.50561 14.696 7.61032 13.8769 7.81031ZM18.8201 10.6673C18.001 10.9054 17.3343 10.0197 17.7533 9.28643C18.0105 8.82931 18.601 8.67694 19.0487 8.93407C19.7821 9.36262 19.6392 10.4673 18.8201 10.6673ZM21.9727 19.124C22.3632 19.124 22.7346 18.9907 23.0489 18.7622V22.0953C23.0489 23.1524 22.2013 24 21.1441 24H5.90489C5.39969 24 4.91517 23.7993 4.55793 23.4421C4.20069 23.0849 4 22.6005 4 22.0953V13.5243H11.7624L12.572 14.0005V22.0953H14.4769V15.0957L21.0202 18.8669C21.306 19.0383 21.6203 19.124 21.9727 19.124Z" fill="currentColor"/>
<path d="M23.0489 13.4481L20.4392 11.9339C22.9537 9.79117 20.4297 5.79136 17.4105 7.1532L16.5818 7.50557L16.4771 6.59133C16.3818 5.5628 15.8484 4.82951 15.1436 4.40096C13.5816 3.49338 11.2005 4.11525 10.8195 6.38181L8.20029 4.87712C7.28594 4.34382 6.12396 4.65809 5.60011 5.57233L4.64766 7.21987C4.38098 7.67699 4.54289 8.25791 5.00007 8.52456L12.4196 12.8101L13.8483 10.334L15.496 11.2863L14.0674 13.7624L21.4869 18.0479C21.9441 18.286 22.5346 18.1527 22.7918 17.6955L23.7442 16.048C24.2681 15.1338 23.9633 13.9719 23.0489 13.4481ZM13.8769 7.81031C13.0483 8.0484 12.3815 7.16273 12.8006 6.42943C13.0483 5.97231 13.6483 5.81993 14.1055 6.07706C14.8389 6.50561 14.696 7.61032 13.8769 7.81031ZM18.8201 10.6673C18.001 10.9054 17.3343 10.0197 17.7533 9.28643C18.0105 8.82931 18.601 8.67694 19.0487 8.93407C19.7821 9.36262 19.6392 10.4673 18.8201 10.6673Z" fill="currentColor"/>
</svg>
