<svg xmlns="http://www.w3.org/2000/svg" width="21" height="20" viewBox="0 0 21 20" fill="none">
  <path d="M10.5928 5.60562C11.4372 4.09079 11.8594 3.33337 12.4907 3.33337C13.1219 3.33337 13.5441 4.09079 14.3885 5.60562L14.607 5.99753C14.8469 6.428 14.9669 6.64323 15.154 6.78525C15.3411 6.92726 15.5741 6.97997 16.0401 7.08541L16.4643 7.18139C18.1041 7.55241 18.924 7.73792 19.119 8.36521C19.3141 8.99246 18.7552 9.64612 17.6373 10.9533L17.348 11.2915C17.0303 11.663 16.8715 11.8487 16.8001 12.0785C16.7286 12.3083 16.7526 12.5561 16.8007 13.0517L16.8443 13.503C17.0134 15.2471 17.0979 16.1192 16.5872 16.5069C16.0765 16.8945 15.3088 16.541 13.7735 15.8341L13.3763 15.6513C12.94 15.4504 12.7219 15.35 12.4907 15.35C12.2594 15.35 12.0413 15.4504 11.605 15.6513L11.2078 15.8341C9.67242 16.541 8.90476 16.8945 8.39408 16.5069C7.88339 16.1192 7.96789 15.2471 8.1369 13.503L8.18063 13.0517C8.22866 12.5561 8.25267 12.3083 8.18122 12.0785C8.10976 11.8487 7.95093 11.663 7.63325 11.2915L7.34404 10.9533C6.22614 9.64612 5.66719 8.99246 5.86225 8.36521C6.05732 7.73792 6.87721 7.55241 8.517 7.18139L8.94124 7.08541C9.40717 6.97997 9.64017 6.92726 9.82725 6.78525C10.0143 6.64323 10.1343 6.428 10.3743 5.99753L10.5928 5.60562Z" fill="white"/>
  <path fill-rule="evenodd" clip-rule="evenodd" d="M8.03799 4.33538C6.38664 3.85952 4.61526 4.11087 2.90616 5.11177L2.73269 5.21336C2.43483 5.38779 2.05197 5.28773 1.87752 4.98988C1.70309 4.69202 1.80315 4.30914 2.10101 4.13471L2.27447 4.03312C4.24149 2.88118 6.36427 2.55221 8.38411 3.13426L8.55734 3.18417C8.88902 3.27976 9.08043 3.62612 8.98484 3.9578C8.88927 4.28948 8.54291 4.48088 8.21123 4.3853L8.03799 4.33538ZM4.78032 8.28042C4.80962 8.62437 4.55456 8.92696 4.21062 8.95621C4.08299 8.96713 3.98513 8.97329 3.90312 8.97854C3.75531 8.98788 3.65899 8.99404 3.5326 9.01829C3.36886 9.04971 3.15625 9.11621 2.77042 9.30913C2.46167 9.46354 2.08626 9.33838 1.93189 9.02962C1.77752 8.72087 1.90266 8.34546 2.2114 8.19112C2.65889 7.96737 2.98368 7.85081 3.29697 7.79067C3.50272 7.75118 3.71512 7.73735 3.90612 7.72491C3.97552 7.72038 4.04211 7.71605 4.10452 7.71073C4.44845 7.68143 4.75102 7.93649 4.78032 8.28042ZM5.68165 13.2135C4.69502 12.9822 3.65552 13.2115 2.87772 13.8244C2.60659 14.038 2.21362 13.9914 1.99998 13.7203C1.78636 13.4491 1.83297 13.0562 2.1041 12.8425C3.18559 11.9904 4.61601 11.6799 5.96683 11.9964C6.30291 12.0751 6.51151 12.4115 6.43276 12.7475C6.35401 13.0836 6.01772 13.2922 5.68165 13.2135Z" fill="white"/>
</svg>