<svg width="28" height="28" viewBox="0 0 28 28" fill="none" xmlns="http://www.w3.org/2000/svg">
<mask id="mask0_98_5643" style="mask-type:alpha" maskUnits="userSpaceOnUse" x="3" y="4" width="22" height="20">
<path fill-rule="evenodd" clip-rule="evenodd" d="M9.84381 4.00046C9.82651 4.00046 9.808 4.00036 9.78842 4.00025C9.6009 3.99922 9.31518 3.99765 9.05227 4.07963C8.58461 4.22544 8.19946 4.56706 7.99518 5.00386L5.5961 5.00386C5.41922 5.00381 5.22562 5.00375 5.05665 5.01915C4.85994 5.03706 4.61816 5.08083 4.3709 5.21499C4.0374 5.39594 3.75611 5.70335 3.60641 6.05048C3.42624 6.46828 3.47217 6.90878 3.50096 7.1849C3.50376 7.21177 3.5064 7.23712 3.50865 7.26071C3.94537 11.8332 6.785 15.5463 11.145 16.6793C11.5593 17.1364 12.0025 17.5279 12.468 17.8575C12.6983 18.0205 12.9454 18.1348 13.196 18.2094C13.1901 18.2687 13.1834 18.3291 13.1761 18.3904C13.1029 18.9975 12.968 19.5715 12.767 19.9605C12.3554 19.9872 11.9321 20.039 11.5314 20.1395C10.683 20.3522 9.81582 20.8146 9.38267 21.8153L9.3741 21.835C9.33423 21.9267 9.27275 22.068 9.23838 22.2207C9.19425 22.4168 9.19739 22.603 9.23421 22.7966C9.27472 23.0097 9.37866 23.2006 9.46306 23.3281C9.54746 23.4555 9.68288 23.6259 9.86372 23.7471C10.247 24.0039 10.6612 24.0015 10.9661 23.9997H10.9665C10.991 23.9995 11.0148 23.9994 11.0378 23.9994H16.962C16.9852 23.9994 17.0091 23.9995 17.0337 23.9997C17.3386 24.0015 17.7528 24.0039 18.1361 23.7471C18.3169 23.6259 18.4523 23.4555 18.5367 23.3281C18.6211 23.2006 18.7251 23.0097 18.7656 22.7966C18.8024 22.603 18.8055 22.4168 18.7614 22.2207C18.727 22.068 18.6656 21.9267 18.6257 21.835L18.6171 21.8153C18.184 20.8146 17.3168 20.3522 16.4684 20.1395C16.0677 20.039 15.6444 19.9872 15.2328 19.9605C15.0318 19.5715 14.8969 18.9975 14.8237 18.3904C14.8164 18.3291 14.8097 18.2687 14.8038 18.2094C15.0545 18.1348 15.3015 18.0205 15.5318 17.8575C16 17.5261 16.4455 17.132 16.8618 16.6715C21.2155 15.5322 24.0551 11.8386 24.4913 7.26052C24.4936 7.23691 24.4962 7.21158 24.499 7.18468C24.5278 6.90851 24.5736 6.46796 24.3934 6.05024C24.2436 5.70316 23.9624 5.39585 23.6289 5.21493C23.3816 5.0808 23.1399 5.03705 22.9432 5.01914C22.7742 5.00375 22.5806 5.00381 22.4037 5.00386L20.0046 5.00386C19.8004 4.56706 19.4152 4.22544 18.9476 4.07963C18.6847 3.99765 18.3989 3.99922 18.2114 4.00025C18.1918 4.00036 18.1733 4.00046 18.156 4.00046H9.84381ZM5.62567 7.00376H7.88509C8.04557 9.73586 8.5401 11.9482 9.28904 13.7054C7.16509 12.322 5.78674 9.95312 5.51154 7.07169L5.50508 7.00386C5.54145 7.00376 5.58129 7.00376 5.62567 7.00376ZM18.7144 13.697C19.4613 11.9411 19.9545 9.7315 20.1147 7.00376H22.3742C22.4186 7.00376 22.4585 7.00376 22.4949 7.00386L22.4884 7.07193C22.2138 9.95387 20.8374 12.3149 18.7144 13.697Z" fill="currentColor"/>
</mask>
<g mask="url(#mask0_98_5643)">
<path fill-rule="evenodd" clip-rule="evenodd" d="M9.84381 4.00046C9.82651 4.00046 9.808 4.00036 9.78842 4.00025C9.6009 3.99922 9.31518 3.99765 9.05227 4.07963C8.58461 4.22544 8.19946 4.56706 7.99518 5.00386L5.5961 5.00386C5.41922 5.00381 5.22562 5.00375 5.05665 5.01915C4.85994 5.03706 4.61816 5.08083 4.3709 5.21499C4.0374 5.39594 3.75611 5.70335 3.60641 6.05048C3.42624 6.46828 3.47217 6.90878 3.50096 7.1849C3.50376 7.21177 3.5064 7.23712 3.50865 7.26071C3.94537 11.8332 6.785 15.5463 11.145 16.6793C11.5593 17.1364 12.0025 17.5279 12.468 17.8575C12.6983 18.0205 12.9454 18.1348 13.196 18.2094C13.1901 18.2687 13.1834 18.3291 13.1761 18.3904C13.1029 18.9975 12.968 19.5715 12.767 19.9605C12.3554 19.9872 11.9321 20.039 11.5314 20.1395C10.683 20.3522 9.81582 20.8146 9.38267 21.8153L9.3741 21.835C9.33423 21.9267 9.27275 22.068 9.23838 22.2207C9.19425 22.4168 9.19739 22.603 9.23421 22.7966C9.27472 23.0097 9.37866 23.2006 9.46306 23.3281C9.54746 23.4555 9.68288 23.6259 9.86372 23.7471C10.247 24.0039 10.6612 24.0015 10.9661 23.9997H10.9665C10.991 23.9995 11.0148 23.9994 11.0378 23.9994H16.962C16.9852 23.9994 17.0091 23.9995 17.0337 23.9997C17.3386 24.0015 17.7528 24.0039 18.1361 23.7471C18.3169 23.6259 18.4523 23.4555 18.5367 23.3281C18.6211 23.2006 18.7251 23.0097 18.7656 22.7966C18.8024 22.603 18.8055 22.4168 18.7614 22.2207C18.727 22.068 18.6656 21.9267 18.6257 21.835L18.6171 21.8153C18.184 20.8146 17.3168 20.3522 16.4684 20.1395C16.0677 20.039 15.6444 19.9872 15.2328 19.9605C15.0318 19.5715 14.8969 18.9975 14.8237 18.3904C14.8164 18.3291 14.8097 18.2687 14.8038 18.2094C15.0545 18.1348 15.3015 18.0205 15.5318 17.8575C16 17.5261 16.4455 17.132 16.8618 16.6715C21.2155 15.5322 24.0551 11.8386 24.4913 7.26052C24.4936 7.23691 24.4962 7.21158 24.499 7.18468C24.5278 6.90851 24.5736 6.46796 24.3934 6.05024C24.2436 5.70316 23.9624 5.39585 23.6289 5.21493C23.3816 5.0808 23.1399 5.03705 22.9432 5.01914C22.7742 5.00375 22.5806 5.00381 22.4037 5.00386L20.0046 5.00386C19.8004 4.56706 19.4152 4.22544 18.9476 4.07963C18.6847 3.99765 18.3989 3.99922 18.2114 4.00025C18.1918 4.00036 18.1733 4.00046 18.156 4.00046H9.84381ZM5.62567 7.00376H7.88509C8.04557 9.73586 8.5401 11.9482 9.28904 13.7054C7.16509 12.322 5.78674 9.95312 5.51154 7.07169L5.50508 7.00386C5.54145 7.00376 5.58129 7.00376 5.62567 7.00376ZM18.7144 13.697C19.4613 11.9411 19.9545 9.7315 20.1147 7.00376H22.3742C22.4186 7.00376 22.4585 7.00376 22.4949 7.00386L22.4884 7.07193C22.2138 9.95387 20.8374 12.3149 18.7144 13.697Z" fill="currentColor"/>
</g>
</svg>
