<svg width="28" height="28" viewBox="0 0 28 28" fill="none" xmlns="http://www.w3.org/2000/svg">
<path d="M17.231 20H7.03851V8H17.231V9H19.2695V5C19.2695 3.9 18.3522 3 17.231 3H7.03851C5.91733 3 5 3.9 5 5V23C5 24.1 5.91733 25 7.03851 25H17.231C18.3522 25 19.2695 24.1 19.2695 23V19H17.231V20ZM20.6761 11.62L21.0838 12.49C21.1755 12.69 21.4609 12.69 21.5527 12.49L21.9604 11.62L22.8471 11.22C23.051 11.13 23.051 10.85 22.8471 10.76L21.9604 10.36L21.5527 9.49C21.4609 9.29 21.1755 9.29 21.0838 9.49L20.6761 10.36L19.7894 10.76C19.5855 10.85 19.5855 11.13 19.7894 11.22L20.6761 11.62Z" fill="currentColor"/>
<path d="M15.7429 11L14.9377 12.75L13.154 13.54C13.065 13.5798 12.9896 13.6438 12.9367 13.7245C12.8838 13.8052 12.8557 13.8991 12.8557 13.995C12.8557 14.0909 12.8838 14.1848 12.9367 14.2655C12.9896 14.3462 13.065 14.4102 13.154 14.45L14.9377 15.24L15.7429 17C15.7835 17.0873 15.8487 17.1613 15.931 17.2132C16.0132 17.2651 16.1089 17.2927 16.2067 17.2927C16.3045 17.2927 16.4002 17.2651 16.4824 17.2132C16.5646 17.1613 16.6299 17.0873 16.6704 17L17.4757 15.25L19.2695 14.46C19.3585 14.4202 19.4339 14.3562 19.4868 14.2755C19.5397 14.1948 19.5679 14.1009 19.5679 14.005C19.5679 13.9091 19.5397 13.8152 19.4868 13.7345C19.4339 13.6538 19.3585 13.5898 19.2695 13.55L17.4858 12.76L16.6806 11C16.6389 10.9126 16.5726 10.8386 16.4896 10.7869C16.4065 10.7351 16.3102 10.7076 16.2118 10.7076C16.1134 10.7076 16.017 10.7351 15.934 10.7869C15.8509 10.8386 15.7847 10.9126 15.7429 11ZM21.0736 15.5L20.6659 16.37L19.7792 16.77C19.5753 16.86 19.5753 17.14 19.7792 17.23L20.6659 17.63L21.0736 18.5C21.1653 18.7 21.4507 18.7 21.5425 18.5L21.9502 17.63L22.8369 17.23C23.0408 17.14 23.0408 16.86 22.8369 16.77L21.9502 16.37L21.5425 15.5C21.5207 15.4572 21.4873 15.4213 21.4459 15.3961C21.4045 15.371 21.3567 15.3577 21.308 15.3577C21.2593 15.3577 21.2116 15.371 21.1702 15.3961C21.1288 15.4213 21.0953 15.4572 21.0736 15.5Z" fill="currentColor"/>
</svg>
