
<svg xmlns="http://www.w3.org/2000/svg" width="21" height="20" viewBox="0 0 21 20" fill="none">
  <mask id="mask0_23_1325" style="mask-type:alpha" maskUnits="userSpaceOnUse" x="0" y="0" width="21" height="20">
    <path fill-rule="evenodd" clip-rule="evenodd" d="M6.55167 0.500435C6.53523 0.500435 6.51765 0.500338 6.49905 0.500236C6.3209 0.499258 6.04947 0.497769 5.79971 0.575645C5.35543 0.714172 4.98953 1.03871 4.79547 1.45367L2.51635 1.45366C2.3483 1.45362 2.16439 1.45357 2.00387 1.46819C1.817 1.48521 1.5873 1.52679 1.3524 1.65424C1.03558 1.82614 0.768355 2.11818 0.62614 2.44796C0.454976 2.84487 0.498608 3.26335 0.525957 3.52565C0.528619 3.55118 0.53113 3.57526 0.53327 3.59767C0.948152 7.94155 3.6458 11.469 7.78784 12.5453C8.18142 12.9796 8.60242 13.3515 9.04467 13.6646C9.26342 13.8195 9.49814 13.928 9.73628 13.9989C9.73063 14.0552 9.72432 14.1126 9.7173 14.1709C9.64777 14.7476 9.51965 15.2929 9.32869 15.6625C8.93766 15.6879 8.53552 15.7371 8.15487 15.8325C7.3489 16.0346 6.52508 16.4739 6.11358 17.4245L6.10544 17.4433C6.06757 17.5304 6.00916 17.6646 5.97651 17.8097C5.93459 17.9959 5.93757 18.1728 5.97255 18.3568C6.01103 18.5592 6.10978 18.7406 6.18996 18.8617C6.27014 18.9827 6.39878 19.1446 6.57059 19.2597C6.93472 19.5037 7.32821 19.5014 7.61781 19.4997H7.6182C7.64148 19.4996 7.66408 19.4994 7.68595 19.4994H13.314C13.3359 19.4994 13.3587 19.4996 13.3821 19.4997C13.6717 19.5014 14.0652 19.5037 14.4293 19.2597C14.6011 19.1446 14.7298 18.9827 14.8099 18.8617C14.8901 18.7406 14.9889 18.5592 15.0274 18.3568C15.0623 18.1728 15.0653 17.9959 15.0234 17.8097C14.9907 17.6646 14.9323 17.5304 14.8945 17.4433L14.8863 17.4245C14.4748 16.4739 13.651 16.0346 12.845 15.8325C12.4644 15.7371 12.0622 15.6879 11.6712 15.6625C11.4803 15.2929 11.3521 14.7476 11.2826 14.1709C11.2756 14.1126 11.2693 14.0552 11.2636 13.999C11.5018 13.928 11.7365 13.8195 11.9553 13.6646C12.4 13.3498 12.8233 12.9754 13.2188 12.5379C17.3548 11.4556 20.0524 7.94664 20.4668 3.59749C20.469 3.57507 20.4715 3.551 20.4741 3.52544C20.5014 3.26309 20.545 2.84456 20.3738 2.44773C20.2315 2.118 19.9643 1.82606 19.6475 1.65419C19.4126 1.52676 19.1829 1.4852 18.9961 1.46818C18.8356 1.45357 18.6516 1.45362 18.4836 1.45366L16.2045 1.45367C16.0104 1.03871 15.6445 0.714173 15.2002 0.575645C14.9505 0.497769 14.679 0.499258 14.5009 0.500236C14.4823 0.500338 14.4647 0.500435 14.4483 0.500435H6.55167ZM2.54443 3.35357H4.69089C4.84334 5.94907 5.31314 8.05083 6.02464 9.72017C4.00689 8.40592 2.69745 6.15546 2.43601 3.4181L2.42988 3.35367C2.46443 3.35358 2.50228 3.35357 2.54443 3.35357ZM14.9787 9.71214C15.6883 8.04409 16.1568 5.94492 16.309 3.35357H18.4555C18.4977 3.35357 18.5356 3.35358 18.5702 3.35367L18.564 3.41833C18.3032 6.15618 16.9955 8.39913 14.9787 9.71214Z" fill="white"/>
  </mask>
  <g mask="url(#mask0_23_1325)">
    <path fill-rule="evenodd" clip-rule="evenodd" d="M6.55167 0.500435C6.53523 0.500435 6.51765 0.500338 6.49905 0.500236C6.3209 0.499258 6.04947 0.497769 5.79971 0.575645C5.35543 0.714172 4.98953 1.03871 4.79547 1.45367L2.51635 1.45366C2.3483 1.45362 2.16439 1.45357 2.00387 1.46819C1.817 1.48521 1.5873 1.52679 1.3524 1.65424C1.03558 1.82614 0.768355 2.11818 0.62614 2.44796C0.454976 2.84487 0.498608 3.26335 0.525957 3.52565C0.528619 3.55118 0.53113 3.57526 0.53327 3.59767C0.948152 7.94155 3.6458 11.469 7.78784 12.5453C8.18142 12.9796 8.60242 13.3515 9.04467 13.6646C9.26342 13.8195 9.49814 13.928 9.73628 13.9989C9.73063 14.0552 9.72432 14.1126 9.7173 14.1709C9.64777 14.7476 9.51965 15.2929 9.32869 15.6625C8.93766 15.6879 8.53552 15.7371 8.15487 15.8325C7.3489 16.0346 6.52508 16.4739 6.11358 17.4245L6.10544 17.4433C6.06757 17.5304 6.00916 17.6646 5.97651 17.8097C5.93459 17.9959 5.93757 18.1728 5.97255 18.3568C6.01103 18.5592 6.10978 18.7406 6.18996 18.8617C6.27014 18.9827 6.39878 19.1446 6.57059 19.2597C6.93472 19.5037 7.32821 19.5014 7.61781 19.4997H7.6182C7.64148 19.4996 7.66408 19.4994 7.68595 19.4994H13.314C13.3359 19.4994 13.3587 19.4996 13.3821 19.4997C13.6717 19.5014 14.0652 19.5037 14.4293 19.2597C14.6011 19.1446 14.7298 18.9827 14.8099 18.8617C14.8901 18.7406 14.9889 18.5592 15.0274 18.3568C15.0623 18.1728 15.0653 17.9959 15.0234 17.8097C14.9907 17.6646 14.9323 17.5304 14.8945 17.4433L14.8863 17.4245C14.4748 16.4739 13.651 16.0346 12.845 15.8325C12.4644 15.7371 12.0622 15.6879 11.6712 15.6625C11.4803 15.2929 11.3521 14.7476 11.2826 14.1709C11.2756 14.1126 11.2693 14.0552 11.2636 13.999C11.5018 13.928 11.7365 13.8195 11.9553 13.6646C12.4 13.3498 12.8233 12.9754 13.2188 12.5379C17.3548 11.4556 20.0524 7.94664 20.4668 3.59749C20.469 3.57507 20.4715 3.551 20.4741 3.52544C20.5014 3.26309 20.545 2.84456 20.3738 2.44773C20.2315 2.118 19.9643 1.82606 19.6475 1.65419C19.4126 1.52676 19.1829 1.4852 18.9961 1.46818C18.8356 1.45357 18.6516 1.45362 18.4836 1.45366L16.2045 1.45367C16.0104 1.03871 15.6445 0.714173 15.2002 0.575645C14.9505 0.497769 14.679 0.499258 14.5009 0.500236C14.4823 0.500338 14.4647 0.500435 14.4483 0.500435H6.55167ZM2.54443 3.35357H4.69089C4.84334 5.94907 5.31314 8.05083 6.02464 9.72017C4.00689 8.40592 2.69745 6.15546 2.43601 3.4181L2.42988 3.35367C2.46443 3.35358 2.50228 3.35357 2.54443 3.35357ZM14.9787 9.71214C15.6883 8.04409 16.1568 5.94492 16.309 3.35357H18.4555C18.4977 3.35357 18.5356 3.35358 18.5702 3.35367L18.564 3.41833C18.3032 6.15618 16.9955 8.39913 14.9787 9.71214Z" fill="white"/>
    <path d="M0 -1H5C4.03408 3.50761 4.76464 8.21312 7.05181 12.2157L7.5 13L0 10V-1Z" fill="white"/>
    <path d="M21.0924 -1.03696H16.0924C16.7435 3.52111 15.9892 8.16935 13.9301 12.2876L13.5924 12.963L21.0924 9.96304V-1.03696Z" fill="white"/>
  </g>
</svg>