<svg width="28" height="28" viewBox="0 0 28 28" fill="none" xmlns="http://www.w3.org/2000/svg">
<path d="M14 4C19.5229 4 24 8.47714 24 14C24 19.5229 19.5229 24 14 24C8.47714 24 4 19.5229 4 14C4 8.47714 8.47714 4 14 4ZM14 6.14286C9.66071 6.14286 6.14286 9.66071 6.14286 14C6.14286 18.3393 9.66071 21.8571 14 21.8571C18.3393 21.8571 21.8571 18.3393 21.8571 14C21.8571 9.66071 18.3393 6.14286 14 6.14286ZM13.2857 8.38C13.5994 8.38001 13.9017 8.49798 14.1324 8.71049C14.3632 8.92299 14.5056 9.2145 14.5314 9.52714L14.5357 9.63V14.3864L17.9586 14.3871C18.2811 14.3873 18.5911 14.5121 18.8237 14.7354C19.0564 14.9588 19.1937 15.2634 19.2069 15.5857C19.2202 15.9079 19.1084 16.2228 18.895 16.4646C18.6815 16.7063 18.3828 16.8562 18.0614 16.8829L17.9586 16.8871H13.2857C13.1867 16.8871 13.091 16.8762 12.9986 16.8543L12.9836 16.8507L12.9307 16.8364L12.8764 16.8193L12.8529 16.8107L12.785 16.7836L12.7443 16.765L12.7007 16.7429L12.6471 16.7129L12.6136 16.6921L12.5764 16.6671L12.5257 16.63L12.4936 16.605C12.4673 16.5846 12.4425 16.5624 12.4193 16.5386C12.3929 16.5147 12.3683 16.4889 12.3457 16.4614L12.3221 16.4336L12.2893 16.3921L12.2557 16.3464L12.2307 16.3093L12.205 16.2679C12.1964 16.2536 12.1883 16.2388 12.1807 16.2236L12.1564 16.175L12.1371 16.1329L12.1207 16.0929C12.0643 15.9478 12.0355 15.7935 12.0357 15.6379V9.63071C12.0357 8.94071 12.5957 8.38071 13.2857 8.38071V8.38Z" fill="currentColor"/>
</svg>
