<svg xmlns="http://www.w3.org/2000/svg" width="25" height="24" viewBox="0 0 25 24" fill="none">
  <path d="M12.5 1.5C18.299 1.5 23 6.201 23 12C23 17.799 18.299 22.5 12.5 22.5C6.701 22.5 2 17.799 2 12C2 6.201 6.701 1.5 12.5 1.5ZM12.5 3.75C7.94375 3.75 4.25 7.44375 4.25 12C4.25 16.5562 7.94375 20.25 12.5 20.25C17.0562 20.25 20.75 16.5562 20.75 12C20.75 7.44375 17.0562 3.75 12.5 3.75ZM11.75 6.099C12.0794 6.09901 12.3967 6.22288 12.639 6.44601C12.8813 6.66914 13.0309 6.97522 13.058 7.3035L13.0625 7.4115V12.4058L16.6565 12.4065C16.9951 12.4067 17.3206 12.5377 17.5649 12.7722C17.8092 13.0067 17.9534 13.3266 17.9673 13.665C17.9812 14.0033 17.8639 14.3339 17.6397 14.5878C17.4156 14.8416 17.102 14.999 16.7645 15.027L16.6565 15.0315H11.75C11.646 15.0315 11.5455 15.02 11.4485 14.997L11.4327 14.9932L11.3773 14.9783L11.3202 14.9603L11.2955 14.9513L11.2242 14.9227L11.1815 14.9032L11.1357 14.88L11.0795 14.8485L11.0443 14.8267L11.0052 14.8005L10.952 14.7615L10.9183 14.7352C10.8907 14.7138 10.8646 14.6905 10.8403 14.6655C10.8125 14.6405 10.7867 14.6134 10.763 14.5845L10.7382 14.5553L10.7037 14.5118L10.6685 14.4637L10.6423 14.4247L10.6153 14.3812C10.6063 14.3662 10.5977 14.3508 10.5898 14.3348L10.5642 14.2838L10.544 14.2395L10.5268 14.1975C10.4675 14.0452 10.4372 13.8832 10.4375 13.7197V7.41225C10.4375 6.68775 11.0255 6.09975 11.75 6.09975V6.099Z" fill="currentColor"/>
  <path d="M11.75 6.099C12.0794 6.09901 12.3967 6.22288 12.639 6.44601C12.8813 6.66914 13.0309 6.97522 13.058 7.3035L13.0625 7.4115V12.4057L16.6565 12.4065C16.9951 12.4067 17.3206 12.5377 17.5649 12.7722C17.8092 13.0067 17.9534 13.3266 17.9673 13.665C17.9812 14.0033 17.8639 14.3339 17.6397 14.5878C17.4156 14.8416 17.102 14.999 16.7645 15.027L16.6565 15.0315H11.75C11.646 15.0315 11.5455 15.02 11.4485 14.997L11.4328 14.9932L11.3773 14.9782L11.3203 14.9602L11.2955 14.9512L11.2243 14.9227L11.1815 14.9032L11.1358 14.88L11.0795 14.8485L11.0443 14.8267L11.0053 14.8005L10.952 14.7615L10.9183 14.7352C10.8907 14.7138 10.8646 14.6905 10.8403 14.6655C10.8125 14.6405 10.7867 14.6134 10.763 14.5845L10.7383 14.5552L10.7038 14.5118L10.6685 14.4637L10.6423 14.4247L10.6153 14.3812C10.6063 14.3662 10.5978 14.3507 10.5898 14.3348L10.5643 14.2837L10.544 14.2395L10.5268 14.1975C10.4675 14.0452 10.4372 13.8832 10.4375 13.7197V7.41225C10.4375 6.68775 11.0255 6.099 11.75 6.099Z"/>
</svg>