<svg width="28" height="28" viewBox="0 0 28 28" fill="none" xmlns="http://www.w3.org/2000/svg">
<path d="M14 19.8864C10.7273 19.8864 8.09091 17.2045 8.09091 13.9773C8.09091 10.75 10.7273 8.06817 14 8.06817C17.2727 8.06817 19.9091 10.6591 19.9091 13.9773C19.9091 17.2954 17.2727 19.8864 14 19.8864ZM14 19.8864C10.7273 19.8864 8.09091 17.2045 8.09091 13.9773C8.09091 10.75 10.7273 8.06817 14 8.06817C17.2727 8.06817 19.9091 10.6591 19.9091 13.9773C19.9091 17.2954 17.2727 19.8864 14 19.8864ZM6.5 14.0227C6.5 13.9773 6.5 13.9773 6.5 14.0227C6.5 13.7045 6.54545 13.3864 6.54545 13.0682H4.72727C4.36364 13.0682 4 13.4318 4 13.7954V14.1136C4 14.5227 4.36364 14.8864 4.72727 14.8864H6.54545C6.5 14.6136 6.5 14.2954 6.5 14.0227ZM8.13636 9.3409C8.5 8.88635 8.90909 8.47726 9.36364 8.11363L8.72727 7.47726C8.5 7.15908 8 7.15908 7.68182 7.47726L7.5 7.65908C7.18182 7.93181 7.18182 8.43181 7.5 8.70454L8.13636 9.3409ZM19.9091 9.3409L20.5 8.65908C20.8182 8.43181 20.8182 7.93181 20.5 7.61363L20.2727 7.38636C20.0455 7.06817 19.5455 7.06817 19.2273 7.38636L18.5909 8.02272C19.0455 8.43181 19.5 8.8409 19.9091 9.3409ZM14 6.47726C14.3182 6.47726 14.5909 6.52272 14.9091 6.52272V4.70454C14.9091 4.3409 14.5455 3.97726 14.1818 3.97726H13.8636C13.4545 3.97726 13.0909 4.3409 13.0909 4.70454V6.56817C13.4091 6.52272 13.6818 6.47726 14 6.47726ZM23.2273 13.0682H21.4545C21.5 13.3864 21.5 13.6591 21.5 13.9773C21.5 14.2954 21.5 14.5682 21.4545 14.8409H23.2273C23.6364 14.8409 24 14.4773 24 14.0682V13.75C24 13.4318 23.6364 13.0682 23.2273 13.0682ZM8.13636 18.6591L7.54545 19.2954C7.22727 19.5227 7.22727 20.0227 7.54545 20.3409L7.77273 20.5682C8 20.8864 8.5 20.8864 8.81818 20.5682L9.45455 19.9318C8.95455 19.5682 8.5 19.1591 8.13636 18.6591ZM19.9545 18.5682C19.5909 19.0682 19.1364 19.5227 18.6364 19.8864L19.2727 20.5227C19.5 20.8409 20 20.8409 20.3182 20.5227L20.5909 20.25C20.9091 20.0227 20.9091 19.5227 20.5909 19.2045L19.9545 18.5682ZM14 21.4773C13.7273 21.4773 13.4091 21.4773 13.1364 21.4318V23.25C13.1364 23.6591 13.4545 24.0227 13.8636 24.0227H14.1818C14.5455 24.0227 14.9091 23.6591 14.9091 23.25V21.4318C14.5909 21.4773 14.3182 21.4773 14 21.4773Z" fill="currentColor"/>
</svg>
