<svg width="28" height="28" viewBox="0 0 28 28" fill="none" xmlns="http://www.w3.org/2000/svg">
<path fill-rule="evenodd" clip-rule="evenodd" d="M19.5556 4C18.3768 4 17.2464 4.46825 16.4129 5.30175C15.5794 6.13524 15.1111 7.2657 15.1111 8.44444C15.1111 9.62318 15.5794 10.7536 16.4129 11.5871C17.2464 12.4206 18.3768 12.8889 19.5556 12.8889C20.7343 12.8889 21.8648 12.4206 22.6983 11.5871C23.5317 10.7536 24 9.62318 24 8.44444C24 7.2657 23.5317 6.13524 22.6983 5.30175C21.8648 4.46825 20.7343 4 19.5556 4ZM4 19.5556C4 18.3768 4.46825 17.2464 5.30175 16.4129C6.13524 15.5794 7.2657 15.1111 8.44444 15.1111C9.62318 15.1111 10.7536 15.5794 11.5871 16.4129C12.4206 17.2464 12.8889 18.3768 12.8889 19.5556C12.8889 20.7343 12.4206 21.8648 11.5871 22.6983C10.7536 23.5317 9.62318 24 8.44444 24C7.2657 24 6.13524 23.5317 5.30175 22.6983C4.46825 21.8648 4 20.7343 4 19.5556ZM15.1111 16.2222C15.1111 15.9275 15.2282 15.6449 15.4365 15.4365C15.6449 15.2282 15.9275 15.1111 16.2222 15.1111H22.8889C23.1836 15.1111 23.4662 15.2282 23.6746 15.4365C23.8829 15.6449 24 15.9275 24 16.2222V21.7778C24 22.3671 23.7659 22.9324 23.3491 23.3491C22.9324 23.7659 22.3671 24 21.7778 24H17.3333C16.744 24 16.1787 23.7659 15.762 23.3491C15.3452 22.9324 15.1111 22.3671 15.1111 21.7778V16.2222ZM4 5.11111C4 4.81643 4.11706 4.53381 4.32544 4.32544C4.53381 4.11706 4.81643 4 5.11111 4H11.7778C12.0725 4 12.3551 4.11706 12.5635 4.32544C12.7718 4.53381 12.8889 4.81643 12.8889 5.11111V10.6667C12.8889 11.256 12.6548 11.8213 12.238 12.238C11.8213 12.6548 11.256 12.8889 10.6667 12.8889H6.22222C5.63285 12.8889 5.06762 12.6548 4.65087 12.238C4.23413 11.8213 4 11.256 4 10.6667V5.11111Z" fill="currentColor"/>
</svg>
