<svg width="28" height="28" viewBox="0 0 28 28" fill="none" xmlns="http://www.w3.org/2000/svg">
<path d="M14.8963 8.54302C15.2457 8.33678 15.5198 8.0149 15.6751 7.62984C15.8304 7.24359 15.8587 6.81562 15.7575 6.41029C15.6555 6.00868 15.4271 5.65169 15.1069 5.3934C14.7917 5.1396 14.4013 5.00099 13.9987 5C13.5963 5 13.2058 5.13948 12.8881 5.39579C12.5705 5.6509 12.3434 6.00974 12.2411 6.41506C12.1387 6.82039 12.1693 7.24836 12.3258 7.63342C12.4822 8.01848 12.7564 8.33916 13.1058 8.5454L13.0975 8.56209C12.5011 9.85675 11.674 11.7117 10.3964 12.4079C9.34818 12.9801 7.84232 12.6928 6.72352 12.4794C6.70693 12.2149 6.61813 11.9603 6.46705 11.7439C6.31888 11.5307 6.11468 11.3638 5.87765 11.2623C5.64168 11.1616 5.38204 11.1321 5.12993 11.1774C4.87783 11.2226 4.64398 11.3407 4.4565 11.5174C4.26591 11.695 4.12709 11.9227 4.05533 12.1778C3.98356 12.4329 3.98121 12.7036 4.05062 12.9599C4.11885 13.215 4.25415 13.4463 4.44238 13.6263C4.63061 13.8051 4.86237 13.9267 5.11296 13.9756L7.79291 21.1844C7.99291 21.7185 8.34114 22.1786 8.79525 22.5017C9.24818 22.8259 9.78582 22.9988 10.3364 23H17.6633C18.2139 23 18.7504 22.8259 19.2045 22.5017C19.6586 22.1786 20.008 21.7185 20.2068 21.1844L22.8856 13.9756C23.135 13.9279 23.3656 13.8075 23.5527 13.6298C23.7409 13.4522 23.8774 13.2245 23.9468 12.9706C24.0173 12.7167 24.0173 12.4472 23.9491 12.1933C23.8811 11.9407 23.746 11.7119 23.5585 11.5317C23.375 11.3532 23.1447 11.2318 22.8951 11.1819C22.6455 11.132 22.387 11.1558 22.1503 11.2503C21.912 11.3454 21.7049 11.5065 21.5527 11.7153C21.3982 11.9258 21.3037 12.1753 21.2797 12.4365C20.1339 12.5915 18.6586 12.7882 17.6022 12.2136C16.3504 11.5305 15.5116 9.80429 14.8963 8.54302Z" fill="currentColor"/>
</svg>
