<svg xmlns="http://www.w3.org/2000/svg" width="16" height="26" viewBox="0 0 16 26" fill="none">
  <mask id="mask0_23_1392" style="mask-type:alpha" maskUnits="userSpaceOnUse" x="0" y="0" width="16" height="26">
    <path d="M14.6693 9.29365C14.1057 9.29365 13.5421 9.23016 12.9785 9.11905L3.63209 21.1984C3.97652 21.6111 4.33659 21.9921 4.74364 22.3571L14.6693 9.53175V9.29365ZM9.92564 8.10317L1.9726 18.3889C2.19178 18.9286 2.45793 19.4524 2.75538 19.9444L11.4442 8.70635C10.9276 8.54762 10.4266 8.34127 9.92564 8.10317ZM16 11.3413V16.4206C16 20.1984 11.1155 25.5 8 25.5C4.88454 25.5 0 20.2302 0 16.4206V7.94444C2.88063 7.94444 5.68297 7.00794 8 5.24603C10.3014 7.00794 13.1037 7.94444 16 7.94444V11.3413ZM13.2759 1.69048L13.7613 3.16667H15.3112V3.18254L14.4031 3.84921C14.2779 3.9127 14.1683 4.00794 14.0587 4.10317L14.5284 5.57936L13.5577 4.88095C13.4638 4.80159 13.3542 4.72222 13.2446 4.6746L12.0078 5.56349L12.4775 4.0873L11.225 3.16667H12.775L13.2759 1.69048ZM2.70841 1.69048L3.19374 3.16667H4.75929V3.18254L3.50685 4.0873L3.97652 5.56349L3.96086 5.54762L2.73973 4.65873C2.59883 4.7381 2.45793 4.81746 2.34834 4.92857L1.47162 5.56349L1.94129 4.07143L0.688845 3.16667H2.2544L2.70841 1.69048ZM8 0.5C8.15656 0.992063 8.31311 1.48413 8.48532 1.97619H10.0352L8.78278 2.89683L9.2681 4.38889L8.01566 3.46825L8 3.48413L6.74755 4.38889L7.09198 3.29365C7.1546 3.16667 7.18591 3.02381 7.21722 2.89683L5.96477 1.99206H7.53033L8 0.5Z" fill="white"/>
  </mask>
  <g mask="url(#mask0_23_1392)">
    <path d="M14.6693 9.29365C14.1057 9.29365 13.5421 9.23016 12.9785 9.11905L3.63209 21.1984C3.97652 21.6111 4.33659 21.9921 4.74364 22.3571L14.6693 9.53175V9.29365ZM9.92564 8.10317L1.9726 18.3889C2.19178 18.9286 2.45793 19.4524 2.75538 19.9444L11.4442 8.70635C10.9276 8.54762 10.4266 8.34127 9.92564 8.10317ZM16 11.3413V16.4206C16 20.1984 11.1155 25.5 8 25.5C4.88454 25.5 0 20.2302 0 16.4206V7.94444C2.88063 7.94444 5.68297 7.00794 8 5.24603C10.3014 7.00794 13.1037 7.94444 16 7.94444V11.3413ZM13.2759 1.69048L13.7613 3.16667H15.3112V3.18254L14.4031 3.84921C14.2779 3.9127 14.1683 4.00794 14.0587 4.10317L14.5284 5.57936L13.5577 4.88095C13.4638 4.80159 13.3542 4.72222 13.2446 4.6746L12.0078 5.56349L12.4775 4.0873L11.225 3.16667H12.775L13.2759 1.69048ZM2.70841 1.69048L3.19374 3.16667H4.75929V3.18254L3.50685 4.0873L3.97652 5.56349L3.96086 5.54762L2.73973 4.65873C2.59883 4.7381 2.45793 4.81746 2.34834 4.92857L1.47162 5.56349L1.94129 4.07143L0.688845 3.16667H2.2544L2.70841 1.69048ZM8 0.5C8.15656 0.992063 8.31311 1.48413 8.48532 1.97619H10.0352L8.78278 2.89683L9.2681 4.38889L8.01566 3.46825L8 3.48413L6.74755 4.38889L7.09198 3.29365C7.1546 3.16667 7.18591 3.02381 7.21722 2.89683L5.96477 1.99206H7.53033L8 0.5Z" fill="white"/>
  </g>
  <path d="M13.276 1.69048L13.7614 3.16667H15.3113V3.18254L14.4032 3.84921C14.278 3.9127 14.1684 4.00794 14.0588 4.10317L14.5285 5.57936L13.5578 4.88095C13.4639 4.80159 13.3543 4.72222 13.2447 4.6746L12.0079 5.56349L12.4776 4.0873L11.2252 3.16667H12.7751L13.276 1.69048ZM2.70853 1.69048L3.19386 3.16667H4.75941V3.18254L3.50697 4.0873L3.97664 5.56349L3.96098 5.54762L2.73985 4.65873C2.59894 4.7381 2.45804 4.81746 2.34846 4.92857L1.47174 5.56349L1.94141 4.07143L0.688965 3.16667H2.25452L2.70853 1.69048ZM8.00012 0.5C8.15668 0.992063 8.31323 1.48413 8.48544 1.97619H10.0353L8.7829 2.89683L9.26822 4.38889L8.01578 3.46825L8.00012 3.48413L6.74767 4.38889L7.0921 3.29365C7.15472 3.16667 7.18603 3.02381 7.21734 2.89683L5.96489 1.99206H7.53045L8.00012 0.5Z" fill="white"/>
</svg>