<svg width="28" height="28" viewBox="0 0 28 28" fill="none" xmlns="http://www.w3.org/2000/svg">
<path d="M19.5958 17.392C14.2198 17.392 10.7975 14.0673 10.7975 8.73455C10.7975 7.58186 11.0624 6.02083 11.4351 5.20095C11.5466 4.94327 11.5851 4.76556 11.5851 4.62461C11.5851 4.312 11.3566 4 10.9351 4C10.7943 4 10.5379 4.03756 10.2908 4.12924C6.51898 5.63453 4 9.60957 4 13.8239C4 19.7501 8.51057 24 14.4493 24C18.7726 24 22.5366 21.4083 23.8591 18.0512C23.9669 17.7862 24 17.5221 24 17.3949C24 16.9995 23.689 16.7344 23.3701 16.7344C23.2016 16.7344 23.0424 16.7792 22.8076 16.8689C22.0534 17.1322 20.8168 17.392 19.5958 17.392Z" fill="currentColor"/>
</svg>
