<svg width="28" height="28" viewBox="0 0 28 28" fill="none" xmlns="http://www.w3.org/2000/svg">
<path d="M14 7C14.9283 7 15.8185 7.35603 16.4749 7.98978C17.1313 8.62352 17.5 9.48306 17.5 10.3793C17.5 11.2756 17.1313 12.1351 16.4749 12.7688C15.8185 13.4026 14.9283 13.7586 14 13.7586C13.0717 13.7586 12.1815 13.4026 11.5251 12.7688C10.8687 12.1351 10.5 11.2756 10.5 10.3793C10.5 9.48306 10.8687 8.62352 11.5251 7.98978C12.1815 7.35603 13.0717 7 14 7ZM7 9.41379C7.56 9.41379 8.08 9.55862 8.53 9.81931C8.38 11.2 8.8 12.571 9.66 13.6428C9.16 14.5697 8.16 15.2069 7 15.2069C6.20435 15.2069 5.44129 14.9017 4.87868 14.3585C4.31607 13.8153 4 13.0786 4 12.3103C4 11.5421 4.31607 10.8054 4.87868 10.2622C5.44129 9.71896 6.20435 9.41379 7 9.41379ZM21 9.41379C21.7956 9.41379 22.5587 9.71896 23.1213 10.2622C23.6839 10.8054 24 11.5421 24 12.3103C24 13.0786 23.6839 13.8153 23.1213 14.3585C22.5587 14.9017 21.7956 15.2069 21 15.2069C19.84 15.2069 18.84 14.5697 18.34 13.6428C19.2115 12.5558 19.6161 11.1866 19.47 9.81931C19.92 9.55862 20.44 9.41379 21 9.41379ZM7.5 19.3103C7.5 17.3117 10.41 15.6897 14 15.6897C17.59 15.6897 20.5 17.3117 20.5 19.3103V21H7.5V19.3103ZM2 21V19.5517C2 18.2097 3.89 17.08 6.45 16.7517C5.86 17.4083 5.5 18.3159 5.5 19.3103V21H2ZM26 21H22.5V19.3103C22.5 18.3159 22.14 17.4083 21.55 16.7517C24.11 17.08 26 18.2097 26 19.5517V21Z" fill="currentColor"/>
</svg>
