<svg width="28" height="28" viewBox="0 0 28 28" fill="none" xmlns="http://www.w3.org/2000/svg">
<path d="M24.3702 13.5132C24.1046 10.728 21.6417 8.68715 18.8697 8.95608C18.7763 8.96441 18.683 8.97692 18.5917 8.99151C17.7513 9.11034 16.9567 9.44597 16.2823 9.96297C16.5458 10.9219 16.7596 11.8871 16.938 12.8628C17.5667 11.5286 19.154 10.9594 20.484 11.5911C21.8119 12.2228 22.3783 13.8175 21.7496 15.1538C21.2952 16.1169 20.3159 16.7173 19.2556 16.6819C18.5439 16.6673 17.8696 16.3608 17.3903 15.8355C17.4484 16.3046 17.5044 16.7778 17.5584 17.2531C17.5916 17.2802 17.6269 17.3031 17.6663 17.324C17.8779 17.4365 18.0978 17.5303 18.324 17.6033C18.3863 17.62 18.4547 17.6346 18.4319 17.7117C18.3966 17.8806 18.3634 18.0307 18.3344 18.1829C18.3157 18.2746 18.2597 18.2725 18.1891 18.2516C18.0003 18.1933 17.824 18.1266 17.6476 18.0515C17.6746 18.3058 17.7015 18.5623 17.7285 18.8083C18.2306 18.975 18.7535 19.0647 19.2826 19.073C20.0648 19.0918 20.8388 18.9187 21.5401 18.5706C22.6439 18.039 23.5174 17.1238 23.9988 15.9919C24.1607 15.5791 24.2831 15.1538 24.3661 14.7181L24.3993 13.6299C24.3744 13.5966 24.3744 13.557 24.3744 13.5194L24.3702 13.5132ZM18.7265 10.3111C18.2784 10.3757 17.8509 10.5363 17.4692 10.7823C17.4111 10.8177 17.3633 10.826 17.3218 10.7593C17.2368 10.628 17.1517 10.5008 17.0646 10.382C17.0189 10.3132 17.0459 10.2778 17.1081 10.2444C17.5895 9.97131 18.1144 9.77952 18.6581 9.67737C18.7286 9.66487 18.768 9.67737 18.7763 9.76076C18.7929 9.90877 18.8137 10.0547 18.8324 10.2048C18.851 10.2924 18.7867 10.3049 18.7245 10.3132L18.7265 10.3111ZM21.7725 10.5884C21.6812 10.6926 21.5982 10.8031 21.5193 10.9178C21.4654 10.9907 21.4177 11.0095 21.3305 10.949C21.0276 10.7218 20.6873 10.5509 20.3221 10.4508C20.2454 10.4279 20.1914 10.3966 20.2122 10.3069C20.2433 10.1548 20.2785 10.0047 20.3097 9.85249C20.3097 9.80662 20.3325 9.76701 20.3947 9.77744C20.5255 9.82122 20.6583 9.86082 20.7869 9.90877C21.1189 10.0318 21.4384 10.1881 21.7393 10.3757C21.8368 10.4404 21.8679 10.4904 21.7808 10.5884H21.7725ZM21.5297 17.7847C21.1251 17.9994 20.6873 18.1412 20.235 18.2037C20.1437 18.2162 20.1209 18.1787 20.1105 18.1057C20.098 17.9848 20.0814 17.8618 20.0669 17.7138C20.0503 17.6575 20.0939 17.6221 20.1665 17.6054C20.5172 17.5199 20.8554 17.3886 21.1707 17.2135C21.2392 17.1801 21.2807 17.1697 21.3264 17.2447C21.4052 17.3761 21.4924 17.5032 21.5795 17.6221C21.6168 17.6992 21.6106 17.7409 21.5318 17.7805H21.5256L21.5297 17.7847ZM22.5526 11.8559C22.6605 11.7871 22.7663 11.7183 22.868 11.6432C22.9697 11.5682 22.9946 11.6036 23.0444 11.6849C23.3265 12.1477 23.5133 12.6605 23.5963 13.1963C23.6129 13.3026 23.5963 13.3485 23.4863 13.3589L23.0132 13.411C22.9863 13.411 22.9717 13.361 22.9634 13.3047C22.8825 12.8544 22.7269 12.4187 22.507 12.0185C22.4696 11.9309 22.4883 11.8955 22.5568 11.8559H22.5505H22.5526ZM23.3805 15.6166C23.2685 15.8522 23.1357 16.0794 22.9863 16.292C22.9178 16.3859 22.8639 16.3879 22.7829 16.3191C22.673 16.2253 22.5111 16.1565 22.4634 16.0398C22.4157 15.9231 22.5713 15.7917 22.6315 15.6625C22.758 15.4165 22.8639 15.1601 22.9448 14.8953C22.9738 14.7994 23.0153 14.7661 23.117 14.7953C23.2477 14.8349 23.3867 14.8536 23.5216 14.8828C23.5714 14.8828 23.617 14.8995 23.6129 14.9599C23.5631 15.1872 23.4863 15.4081 23.3867 15.6187H23.3805V15.6166Z" fill="currentColor"/>
<path d="M21.2847 14.0615C21.2536 15.1434 20.3552 15.994 19.2783 15.9627C19.2742 15.9627 19.27 15.9627 19.2659 15.9627C18.1869 15.9502 17.3217 15.0621 17.3341 13.9781C17.3466 12.8941 18.2305 12.0248 19.3094 12.0373C19.3426 12.0373 19.3737 12.0373 19.4069 12.0414C20.4776 12.0748 21.3179 12.9754 21.2847 14.0511C21.2847 14.0552 21.2847 14.0594 21.2847 14.0657V14.0615Z" fill="currentColor"/>
<path d="M3.60059 8.12013C3.60059 7.11531 4.23757 6.31688 5.16297 6.17721C7.13826 5.87701 9.11355 5.61018 11.0992 5.32249C11.8005 5.22243 12.5039 5.13278 13.2052 5.02647C14.2924 4.85761 15.2448 5.51011 15.4067 6.60248C15.7615 8.99986 16.0893 11.3972 16.4254 13.7967C16.6972 15.7292 16.9566 17.6659 17.2367 19.5963C17.3944 20.6803 16.8031 21.6309 15.7324 21.8102C13.9833 22.1 12.2238 22.3272 10.4643 22.5774C9.5389 22.7087 8.61142 22.8317 7.68603 22.9734C6.57389 23.1423 5.62982 22.494 5.46175 21.3703C5.10902 19.0042 4.78327 16.6319 4.44921 14.2616C4.1774 12.3312 3.91389 10.3945 3.64416 8.4641C3.62756 8.32234 3.60889 8.18058 3.60059 8.12013ZM12.9915 13.09C13.0164 12.5042 12.6782 11.9622 12.1429 11.7266C11.5951 11.441 10.9291 11.5286 10.4767 11.9497C10.3066 12.0998 10.1821 12.1978 9.92275 12.081C9.11147 11.7141 8.30019 11.9643 7.89144 12.6647C7.48269 13.3652 7.65283 14.1761 8.36866 14.7431C8.90398 15.1642 9.4476 15.577 9.99744 15.9814C10.539 16.3796 10.9809 16.3233 11.398 15.7917C11.8462 15.2247 12.2715 14.6327 12.7155 14.0531C12.9168 13.7738 13.0143 13.434 12.9915 13.09ZM15.5996 18.7603C15.61 18.4664 15.5125 18.335 15.3465 18.26C15.1992 18.1766 15.0104 18.2287 14.9253 18.3767C14.9191 18.3872 14.9149 18.3976 14.9087 18.4101C14.7199 18.9771 14.5103 19.1668 14.1161 18.5414C14.004 18.3997 13.7986 18.3746 13.6555 18.4893C13.643 18.4997 13.6306 18.5122 13.6181 18.5227C13.4563 18.6248 13.4086 18.8395 13.5123 19.0021C13.5144 19.0063 13.5185 19.0105 13.5206 19.0146C13.8132 19.4524 14.0953 19.8965 14.4169 20.3113C14.6058 20.5636 14.9211 20.551 15.0498 20.2717C15.2842 19.7547 15.4399 19.2023 15.5975 18.7561V18.7603H15.5996ZM5.27502 9.23543C5.27502 9.5377 5.35801 9.68989 5.55927 9.74617C5.74186 9.79829 5.9369 9.71073 6.01782 9.53562C6.12364 9.36885 6.09044 9.06865 6.27926 9.02904C6.51579 8.97901 6.55107 9.30214 6.70461 9.43556C6.85815 9.56897 7.00754 9.65445 7.19843 9.5252C7.37687 9.44389 7.45364 9.23126 7.37065 9.05406C7.36442 9.04155 7.3582 9.02696 7.3499 9.01445C7.08846 8.54331 6.78138 8.10136 6.4328 7.69068C6.32076 7.52599 6.09874 7.4843 5.9369 7.59687C5.87466 7.64065 5.82693 7.70111 5.80203 7.77198C5.57795 8.2598 5.42856 8.79556 5.27502 9.23543Z" fill="currentColor"/>
<path d="M24.3701 13.513C24.1045 10.7279 21.6416 8.68701 18.8696 8.95593C18.7762 8.96427 18.6829 8.97678 18.5916 8.99137C17.7512 9.1102 16.9566 9.44583 16.2822 9.96283C16.5457 10.9218 16.7594 11.887 16.9379 12.8626C17.5666 11.5284 19.1539 10.9593 20.4839 11.591C21.8118 12.2226 22.3782 13.8174 21.7495 15.1537C21.2951 16.1168 20.3158 16.7172 19.2555 16.6817C18.5438 16.6671 17.8695 16.3607 17.3902 15.8354C17.4483 16.3044 17.5043 16.7776 17.5583 17.2529C17.5915 17.28 17.6268 17.303 17.6662 17.3238C17.8778 17.4364 18.0977 17.5302 18.3239 17.6032C18.3862 17.6198 18.4546 17.6344 18.4318 17.7116C18.3965 17.8804 18.3633 18.0305 18.3343 18.1827C18.3156 18.2744 18.2596 18.2723 18.189 18.2515C18.0002 18.1931 17.8239 18.1264 17.6475 18.0514C17.6745 18.3057 17.7014 18.5621 17.7284 18.8081C18.2305 18.9749 18.7534 19.0645 19.2825 19.0729C20.0647 19.0916 20.8387 18.9186 21.54 18.5705C22.6438 18.0389 23.5173 17.1237 23.9987 15.9917C24.1605 15.5789 24.283 15.1537 24.366 14.718L24.3992 13.6298C24.3743 13.5964 24.3743 13.5568 24.3743 13.5193L24.3701 13.513ZM18.7264 10.311C18.2783 10.3756 17.8508 10.5361 17.4691 10.7821C17.411 10.8175 17.3632 10.8259 17.3217 10.7592C17.2367 10.6278 17.1516 10.5007 17.0645 10.3818C17.0188 10.3131 17.0458 10.2776 17.108 10.2443C17.5894 9.97117 18.1143 9.77938 18.658 9.67723C18.7285 9.66472 18.7679 9.67723 18.7762 9.76061C18.7928 9.90863 18.8136 10.0546 18.8323 10.2047C18.8509 10.2922 18.7866 10.3047 18.7244 10.3131L18.7264 10.311ZM21.7724 10.5882C21.6811 10.6925 21.5981 10.803 21.5192 10.9176C21.4653 10.9906 21.4176 11.0093 21.3304 10.9489C21.0275 10.7217 20.6872 10.5507 20.322 10.4506C20.2452 10.4277 20.1913 10.3964 20.2121 10.3068C20.2432 10.1546 20.2784 10.0045 20.3096 9.85234C20.3096 9.80648 20.3324 9.76687 20.3946 9.77729C20.5254 9.82107 20.6582 9.86068 20.7868 9.90863C21.1188 10.0316 21.4383 10.188 21.7392 10.3756C21.8367 10.4402 21.8678 10.4903 21.7807 10.5882H21.7724ZM21.5296 17.7845C21.125 17.9993 20.6872 18.141 20.2349 18.2036C20.1436 18.2161 20.1208 18.1785 20.1104 18.1056C20.0979 17.9847 20.0813 17.8617 20.0668 17.7137C20.0502 17.6574 20.0938 17.6219 20.1664 17.6052C20.5171 17.5198 20.8553 17.3884 21.1706 17.2133C21.2391 17.18 21.2806 17.1696 21.3263 17.2446C21.4051 17.3759 21.4923 17.5031 21.5794 17.6219C21.6167 17.6991 21.6105 17.7408 21.5317 17.7804H21.5255L21.5296 17.7845ZM22.5525 11.8557C22.6604 11.7869 22.7662 11.7181 22.8679 11.6431C22.9696 11.568 22.9945 11.6035 23.0443 11.6848C23.3264 12.1476 23.5132 12.6604 23.5962 13.1962C23.6128 13.3025 23.5962 13.3483 23.4862 13.3588L23.0131 13.4109C22.9862 13.4109 22.9716 13.3608 22.9633 13.3046C22.8824 12.8543 22.7268 12.4186 22.5069 12.0183C22.4695 11.9308 22.4882 11.8953 22.5567 11.8557H22.5504H22.5525ZM23.3804 15.6165C23.2684 15.852 23.1356 16.0793 22.9862 16.2919C22.9177 16.3857 22.8637 16.3878 22.7828 16.319C22.6729 16.2252 22.511 16.1564 22.4633 16.0397C22.4156 15.9229 22.5712 15.7916 22.6314 15.6623C22.7579 15.4163 22.8637 15.1599 22.9447 14.8952C22.9737 14.7993 23.0152 14.7659 23.1169 14.7951C23.2476 14.8347 23.3866 14.8535 23.5215 14.8827C23.5713 14.8827 23.6169 14.8993 23.6128 14.9598C23.563 15.187 23.4862 15.408 23.3866 15.6186H23.3804V15.6165Z" fill="currentColor"/>
<path d="M21.2846 14.0613C21.2535 15.1433 20.3551 15.9938 19.2782 15.9626C19.274 15.9626 19.2699 15.9626 19.2657 15.9626C18.1868 15.9501 17.3216 15.062 17.334 13.978C17.3465 12.8939 18.2304 12.0246 19.3093 12.0371C19.3425 12.0371 19.3736 12.0371 19.4068 12.0413C20.4775 12.0746 21.3178 12.9752 21.2846 14.0509C21.2846 14.0551 21.2846 14.0593 21.2846 14.0655V14.0613Z" fill="currentColor"/>
</svg>
