<svg xmlns="http://www.w3.org/2000/svg" width="36" height="36" viewBox="0 0 36 36" fill="none">
  <g clip-path="url(#clip0_1_1770)">
    <path d="M16.0023 4.34758e-06H1.50733C1.3094 -0.000471581 1.11333 0.0381318 0.930355 0.1136C0.747381 0.189069 0.581105 0.299918 0.441066 0.43979C0.301026 0.579662 0.189977 0.745804 0.114289 0.928687C0.038601 1.11157 -0.000237376 1.3076 1.0915e-06 1.50552V16.0023C1.0915e-06 16.2101 0.169892 16.38 0.375929 16.38H16.0023C16.1024 16.38 16.1985 16.3402 16.2694 16.2694C16.3402 16.1985 16.38 16.1024 16.38 16.0023V0.375933C16.3795 0.276064 16.3395 0.180449 16.2687 0.110001C16.1979 0.0395518 16.1021 3.20444e-06 16.0023 4.34758e-06ZM13.3671 13.3672H3.01104V3.01105H13.3671V13.3672Z" fill="currentColor"/>
    <path d="M6.87154 9.85378H9.50665C9.60684 9.85378 9.70291 9.81416 9.77375 9.74363C9.84459 9.67311 9.88439 9.57745 9.88439 9.47771V6.85427C9.88391 6.75485 9.8439 6.65966 9.77312 6.58952C9.70233 6.51938 9.60652 6.48001 9.50665 6.48001H6.87154C6.77198 6.48048 6.67664 6.52007 6.60624 6.59015C6.53585 6.66024 6.49609 6.75516 6.49561 6.85427V9.47771C6.49561 9.68464 6.66369 9.85378 6.87154 9.85378ZM16.0023 19.6926H0.375928C0.27606 19.6931 0.180445 19.7329 0.109996 19.8034C0.0395475 19.8738 -1.14311e-06 19.9692 0 20.0686V34.4994C0 35.3307 0.672333 36 1.50552 36H16.0023C16.1021 36 16.1979 35.9606 16.2687 35.8905C16.3395 35.8204 16.3795 35.7252 16.38 35.6257V20.0686C16.38 19.9689 16.3402 19.8732 16.2694 19.8027C16.1985 19.7322 16.1024 19.6926 16.0023 19.6926ZM13.3671 33.0005H3.01104V22.6921H13.3671V33.0023V33.0005Z" fill="currentColor"/>
    <path d="M6.85424 29.52H9.47768C9.57711 29.52 9.67249 29.4806 9.74297 29.4105C9.81344 29.3404 9.85327 29.2452 9.85375 29.1457V26.5223C9.85375 26.4226 9.81413 26.3269 9.7436 26.2564C9.67307 26.1859 9.57742 26.1462 9.47768 26.1462H6.85424C6.75482 26.1467 6.65963 26.1865 6.58949 26.257C6.51935 26.3275 6.47998 26.4229 6.47998 26.5223V29.1457C6.47998 29.3509 6.64732 29.52 6.85424 29.52ZM34.5011 1.08667e-06H20.0686C19.9692 -5.14077e-08 19.8738 0.0393734 19.8033 0.10951C19.7329 0.179647 19.693 0.274838 19.6925 0.374264V15.9314C19.6925 16.1383 19.8617 16.3074 20.0686 16.3074H35.6257C35.7251 16.307 35.8203 16.2671 35.8905 16.1967C35.9606 16.1262 36 16.0308 36 15.9314V1.50065C36.0005 1.3036 35.962 1.1084 35.8869 0.926234C35.8118 0.74407 35.7014 0.578531 35.5621 0.439112C35.4229 0.299692 35.2575 0.189136 35.0754 0.113783C34.8933 0.03843 34.6982 -0.000236324 34.5011 1.08667e-06ZM33.0005 13.3079H22.692V2.9977H33.0023V13.3079H33.0005Z" fill="currentColor"/>
    <path d="M26.4935 9.85378H29.1286C29.2284 9.8533 29.3241 9.81347 29.3945 9.743C29.465 9.67252 29.5045 9.57714 29.5045 9.47771V6.85427C29.504 6.75516 29.4643 6.66024 29.3939 6.59015C29.3235 6.52007 29.2281 6.48048 29.1286 6.48001H26.4935C26.3936 6.48001 26.2978 6.51938 26.227 6.58952C26.1562 6.65966 26.1162 6.75485 26.1157 6.85427V9.47771C26.1157 9.68464 26.2856 9.85378 26.4935 9.85378ZM35.6242 19.6926H33.365C33.3154 19.6926 33.2663 19.7023 33.2204 19.7212C33.1746 19.7401 33.133 19.7678 33.0979 19.8027C33.0628 19.8376 33.035 19.8791 33.016 19.9247C32.997 19.9704 32.9873 20.0193 32.9873 20.0686V26.3483H29.3183V20.0686C29.3183 20.0191 29.3085 19.9701 29.2894 19.9243C29.2703 19.8786 29.2423 19.837 29.2071 19.8021C29.1718 19.7671 29.13 19.7395 29.0839 19.7207C29.0379 19.7019 28.9886 19.6923 28.9388 19.6926H19.9979C19.8977 19.6926 19.8016 19.7322 19.7308 19.8027C19.6599 19.8732 19.6201 19.9689 19.6201 20.0686V35.6257C19.6201 35.8309 19.79 36 19.9979 36H22.257C22.3566 35.9995 22.4519 35.96 22.5223 35.8899C22.5927 35.8198 22.6325 35.7249 22.633 35.6257V24.1909H26.3037V28.9718C26.3037 29.1769 26.4736 29.346 26.6814 29.346H35.6242C35.7237 29.3456 35.8191 29.306 35.8895 29.2359C35.9599 29.1658 35.9996 29.0709 36.0001 28.9718V20.0686C36.0001 19.9692 35.9606 19.8738 35.8901 19.8034C35.8197 19.7329 35.7241 19.6931 35.6242 19.6926Z" fill="currentColor"/>
    <path d="M28.9234 32.94H26.6587C26.609 32.94 26.5597 32.9499 26.5138 32.9692C26.4678 32.9885 26.4261 33.0167 26.3909 33.0524C26.3558 33.088 26.3279 33.1303 26.3089 33.1768C26.2898 33.2234 26.28 33.2733 26.28 33.3237V35.6182C26.28 35.8275 26.4503 36 26.6587 36H28.9234C29.0232 35.9995 29.1187 35.9591 29.1893 35.8876C29.2599 35.8161 29.2997 35.7193 29.3002 35.6182V33.3237C29.3002 33.2222 29.2606 33.1249 29.1899 33.053C29.1193 32.9811 29.0235 32.9405 28.9234 32.94ZM35.6232 32.94H33.3585C33.3088 32.94 33.2595 32.9499 33.2136 32.9692C33.1677 32.9885 33.1259 33.0167 33.0908 33.0524C33.0556 33.088 33.0277 33.1303 33.0087 33.1768C32.9896 33.2234 32.9799 33.2733 32.9799 33.3237V35.6182C32.9799 35.8275 33.1502 36 33.3585 36H35.6232C35.723 35.9995 35.8186 35.9591 35.8891 35.8876C35.9597 35.8161 35.9996 35.7193 36 35.6182V33.3237C36 33.2222 35.9604 33.1249 35.8898 33.053C35.8191 32.9811 35.7233 32.9405 35.6232 32.94Z" fill="currentColor"/>
  </g>
  <defs>
    <clipPath id="clip0_1_1770">
      <rect width="36" height="36" fill="currentColor"/>
    </clipPath>
  </defs>
</svg>