<svg width="28" height="28" viewBox="0 0 28 28" fill="none" xmlns="http://www.w3.org/2000/svg">
<path d="M8.60912 8.73165C10.1384 7.51533 12.0404 6.85402 14.0001 6.85728C16.0393 6.85728 17.9134 7.55826 19.3911 8.73165L20.7854 7.34777L22.1423 8.6945L20.748 10.0784C21.609 11.1482 22.1992 12.4072 22.4693 13.7499C22.7394 15.0926 22.6815 16.48 22.3005 17.796C21.9194 19.112 21.2262 20.3182 20.279 21.3136C19.3318 22.3091 18.1582 23.0649 16.8562 23.5177C15.5543 23.9705 14.1621 24.1072 12.796 23.9163C11.4299 23.7254 10.1298 23.2124 9.0045 22.4204C7.87917 21.6284 6.96139 20.5803 6.32796 19.364C5.69454 18.1476 5.36392 16.7983 5.36377 15.4291C5.36377 13.4052 6.07003 11.5451 7.25225 10.0784L5.85796 8.69546L7.21483 7.34873L8.60912 8.73165ZM14.9597 14.4767V10.186L10.1617 16.3815H13.0405V20.6674L17.8385 14.4767H14.9597ZM10.1617 4H17.8385V5.90485H10.1617V4Z" fill="currentColor"/>
<path d="M10.1612 4H17.838V5.90485H10.1612V4Z" fill="currentColor"/>
</svg>
