<svg width="28" height="28" viewBox="0 0 28 28" fill="none" xmlns="http://www.w3.org/2000/svg">
<path d="M6.13932 6.13929L4.50636 6.73309C3.83122 6.97859 3.83121 7.9334 4.50635 8.17891L6.13932 8.7727L6.73312 10.4056C6.97863 11.0808 7.93345 11.0808 8.17896 10.4056L8.77277 8.7727L10.4057 8.17891C11.0809 7.9334 11.0809 6.97859 10.4057 6.73309L8.77277 6.13929L8.17896 4.50635C7.93345 3.83122 6.97863 3.83122 6.73312 4.50635L6.13932 6.13929Z" fill="currentColor"/>
<path d="M12.4527 11.4867L15.9709 10.2074L17.2503 6.68927C17.4958 6.01413 18.4506 6.01415 18.6962 6.68927L19.9754 10.2074L23.4936 11.4867C24.1688 11.7322 24.1688 12.6871 23.4936 12.9326L19.9754 14.2119L18.6962 17.73C18.4506 18.4052 17.4958 18.4052 17.2503 17.73L15.9709 14.2119L12.4527 12.9326C11.7776 12.6871 11.7776 11.7322 12.4527 11.4867Z" fill="currentColor"/>
<path d="M4.50637 18.5023L7.10648 17.5568L8.05198 14.9567C8.29749 14.2816 9.25231 14.2816 9.49782 14.9567L10.4433 17.5568L13.0434 18.5023C13.7186 18.7477 13.7186 19.7026 13.0434 19.948L10.4433 20.8936L9.49782 23.4937C9.25231 24.1688 8.29749 24.1688 8.05198 23.4937L7.10648 20.8936L4.50637 19.948C3.83123 19.7026 3.83123 18.7477 4.50637 18.5023Z" fill="currentColor"/>
<path d="M6.13932 6.13929L4.50636 6.73309C3.83122 6.97859 3.83121 7.9334 4.50635 8.17891L6.13932 8.77271L6.73312 10.4056C6.97863 11.0808 7.93345 11.0808 8.17896 10.4056L8.77277 8.77271L10.4057 8.17891C11.0809 7.9334 11.0809 6.97859 10.4057 6.73309L8.77277 6.13929L8.17896 4.50635C7.93345 3.83122 6.97863 3.83122 6.73312 4.50635L6.13932 6.13929Z" fill="currentColor"/>
</svg>
