<svg xmlns="http://www.w3.org/2000/svg" width="21" height="21" viewBox="0 0 21 21" fill="none">
  <path d="M16.1486 14.0367C10.8283 14.0367 7.44145 10.7292 7.44145 5.42423C7.44145 4.27753 7.70362 2.72462 8.07246 1.909C8.18274 1.65266 8.22091 1.47588 8.22091 1.33565C8.22091 1.02467 7.9947 0.714294 7.57765 0.714294C7.43824 0.714294 7.18451 0.75166 6.94002 0.842865C3.20724 2.34032 0.714355 6.2947 0.714355 10.4871C0.714355 16.3825 5.17819 20.6103 11.0554 20.6103C15.334 20.6103 19.0589 18.0321 20.3677 14.6924C20.4744 14.4288 20.5072 14.1661 20.5072 14.0395C20.5072 13.6462 20.1994 13.3824 19.8838 13.3824C19.717 13.3824 19.5595 13.427 19.3271 13.5162C18.5807 13.7782 17.3569 14.0367 16.1486 14.0367Z" fill="currentColor"/>
</svg>