<svg width="38" height="38" viewBox="0 0 38 38" fill="none" xmlns="http://www.w3.org/2000/svg">
<path d="M20.9443 4.256C20.3884 3.82358 19.7043 3.58881 19 3.58881C18.2957 3.58881 17.6116 3.82358 17.0557 4.256L3.781 14.5793C2.59033 15.5088 3.24583 17.4167 4.75475 17.4167H6.33333V30.0833C6.33333 30.9232 6.66696 31.7286 7.26083 32.3225C7.8547 32.9164 8.66015 33.25 9.5 33.25H15.8333V23.75C15.8333 22.9102 16.167 22.1047 16.7608 21.5108C17.3547 20.917 18.1601 20.5833 19 20.5833C19.8399 20.5833 20.6453 20.917 21.2392 21.5108C21.833 22.1047 22.1667 22.9102 22.1667 23.75V33.25H28.5C29.3399 33.25 30.1453 32.9164 30.7392 32.3225C31.333 31.7286 31.6667 30.9232 31.6667 30.0833V17.4167H33.2453C34.7526 17.4167 35.4113 15.5088 34.219 14.5809L20.9443 4.256Z" fill="currentColor"/>
</svg>
