<svg width="38" height="38" viewBox="0 0 38 38" fill="none" xmlns="http://www.w3.org/2000/svg">
<mask id="mask0_721_717" style="mask-type:luminance" maskUnits="userSpaceOnUse" x="3" y="6" width="32" height="26">
<path d="M22.1667 6.33331H15.8333C9.86257 6.33331 6.87641 6.33331 5.02232 8.18898C3.68599 9.52373 3.31232 11.4459 3.20782 14.6458H34.7922C34.6877 11.4459 34.314 9.52373 32.9777 8.18898C31.1236 6.33331 28.1374 6.33331 22.1667 6.33331ZM15.8333 31.6666H22.1667C28.1374 31.6666 31.1236 31.6666 32.9777 29.811C34.8317 27.9553 34.8333 24.9707 34.8333 19C34.8333 18.3012 34.8323 17.6415 34.8302 17.0208H3.16982C3.16666 17.6415 3.1656 18.3012 3.16666 19C3.16666 24.9707 3.16666 27.9569 5.02232 29.811C6.87799 31.6651 9.86257 31.6666 15.8333 31.6666Z" fill="white"/>
<path fill-rule="evenodd" clip-rule="evenodd" d="M8.3125 25.3333C8.3125 25.0184 8.43761 24.7163 8.66031 24.4936C8.88301 24.2709 9.18506 24.1458 9.5 24.1458H15.8333C16.1483 24.1458 16.4503 24.2709 16.673 24.4936C16.8957 24.7163 17.0208 25.0184 17.0208 25.3333C17.0208 25.6483 16.8957 25.9503 16.673 26.173C16.4503 26.3957 16.1483 26.5208 15.8333 26.5208H9.5C9.18506 26.5208 8.88301 26.3957 8.66031 26.173C8.43761 25.9503 8.3125 25.6483 8.3125 25.3333ZM18.6042 25.3333C18.6042 25.0184 18.7293 24.7163 18.952 24.4936C19.1747 24.2709 19.4767 24.1458 19.7917 24.1458H22.1667C22.4816 24.1458 22.7837 24.2709 23.0064 24.4936C23.2291 24.7163 23.3542 25.0184 23.3542 25.3333C23.3542 25.6483 23.2291 25.9503 23.0064 26.173C22.7837 26.3957 22.4816 26.5208 22.1667 26.5208H19.7917C19.4767 26.5208 19.1747 26.3957 18.952 26.173C18.7293 25.9503 18.6042 25.6483 18.6042 25.3333Z" fill="black"/>
</mask>
<g mask="url(#mask0_721_717)">
<path d="M0 0H38V38H0V0Z" fill="currentColor"/>
</g>
</svg>
