<svg width="42" height="42" viewBox="0 0 42 42" fill="currentColor" xmlns="http://www.w3.org/2000/svg">
<path d="M11.375 7.875H16.625C18.9583 7.875 20.125 9.04167 20.125 11.375V16.625C20.125 18.9583 18.9583 20.125 16.625 20.125H11.375C9.04167 20.125 7.875 18.9583 7.875 16.625V11.375C7.875 9.04167 9.04167 7.875 11.375 7.875Z" fill="currentColor"/>
<path d="M25.375 7.875H30.625C32.9583 7.875 34.125 9.04167 34.125 11.375V16.625C34.125 18.9583 32.9583 20.125 30.625 20.125H25.375C23.0417 20.125 21.875 18.9583 21.875 16.625V11.375C21.875 9.04167 23.0417 7.875 25.375 7.875Z" fill="currentColor"/>
<path d="M11.375 21.875H16.625C18.9583 21.875 20.125 23.0417 20.125 25.375V30.625C20.125 32.9583 18.9583 34.125 16.625 34.125H11.375C9.04167 34.125 7.875 32.9583 7.875 30.625V25.375C7.875 23.0417 9.04167 21.875 11.375 21.875Z" fill="currentColor"/>
<path d="M22.3038 25.5256L25.5212 22.3082C27.1711 20.6583 28.821 20.6583 30.4709 22.3082L33.6883 25.5256C35.3382 27.1755 35.3382 28.8254 33.6883 30.4753L30.4709 33.6927C28.821 35.3426 27.1711 35.3426 25.5212 33.6927L22.3038 30.4753C20.6539 28.8254 20.6539 27.1755 22.3038 25.5256Z" fill="currentColor"/>
</svg>
