<svg width="38" height="38" viewBox="0 0 38 38" fill="none" xmlns="http://www.w3.org/2000/svg">
<path d="M31.6665 19C31.6665 17.2583 33.0915 15.8333 34.8332 15.8333V9.49998C34.8332 7.75831 33.4082 6.33331 31.6665 6.33331H6.33317C4.5915 6.33331 3.18234 7.75831 3.18234 9.49998V15.8333C4.924 15.8333 6.33317 17.2583 6.33317 19C6.33317 20.7416 4.924 22.1666 3.1665 22.1666V28.5C3.1665 30.2416 4.5915 31.6666 6.33317 31.6666H31.6665C33.4082 31.6666 34.8332 30.2416 34.8332 28.5V22.1666C33.0915 22.1666 31.6665 20.7416 31.6665 19ZM24.6682 26.6L18.9998 22.9583L13.3315 26.6L15.0415 20.0766L9.83234 15.8175L16.5457 15.4216L18.9998 9.18331L21.4382 15.4375L28.1515 15.8333L22.9423 20.0925L24.6682 26.6Z" fill="currentColor"/>
</svg>
